<svg width="26" height="24" viewBox="0 0 26 24" fill="none" xmlns="http://www.w3.org/2000/svg">
<path d="M13 4.52765C10.4479 2.41689 6.52304 2.49347 4.07049 4.75736C1.53209 7.10051 1.53209 10.8995 4.07049 13.2426L11.468 20.0711C12.3141 20.8521 13.6859 20.8521 14.5321 20.0711L21.9295 13.2426C24.468 10.8995 24.468 7.10051 21.9295 4.75736C19.477 2.49347 15.5522 2.41689 13 4.52765ZM11.7308 6.17157L12.234 6.63604C12.6571 7.02656 13.343 7.02656 13.7661 6.63604L14.2692 6.17157C15.9615 4.60948 18.7052 4.60948 20.3975 6.17157C22.0898 7.73367 22.0898 10.2663 20.3975 11.8284L13 18.6569L5.60256 11.8284C3.91029 10.2663 3.91029 7.73367 5.60256 6.17157C7.29483 4.60948 10.0385 4.60948 11.7308 6.17157Z" fill="white"/>
</svg>
