<svg width="26" height="24" viewBox="0 0 26 24" fill="none" xmlns="http://www.w3.org/2000/svg">
<path d="M10.1408 3.29289C10.4714 3.59801 10.5526 4.06444 10.3423 4.44982C9.79407 5.45468 9.48481 6.59034 9.48481 7.79556C9.48481 11.9097 13.0979 15.2448 17.5548 15.2448C18.8605 15.2448 20.0908 14.9593 21.1794 14.4532C21.5969 14.2591 22.1022 14.3341 22.4327 14.6392C22.7632 14.9443 22.8445 15.4108 22.6342 15.7962C20.9512 18.8806 17.4881 21 13.4867 21C7.83311 21 3.25 16.7694 3.25 11.5508C3.25 7.85718 5.54602 4.66038 8.8875 3.10688C9.305 2.91278 9.81029 2.98777 10.1408 3.29289ZM7.39017 6.66959C6.16024 7.9774 5.41667 9.6843 5.41667 11.5508C5.41667 15.6649 9.02973 19 13.4867 19C15.5087 19 17.3578 18.3136 18.7746 17.1783C18.3745 17.2222 17.9674 17.2448 17.5548 17.2448C11.9013 17.2448 7.31815 13.0142 7.31815 7.79556C7.31815 7.41471 7.34261 7.03895 7.39017 6.66959Z" fill="white"/>
</svg>
