<svg width="26" height="26" viewBox="0 0 26 26" fill="none" xmlns="http://www.w3.org/2000/svg">
<path d="M4.48729 4.33332L6.50991 17.4803C6.52463 17.5888 6.55541 17.6922 6.5998 17.7881C6.7334 18.0765 6.99018 18.2963 7.30264 18.3799C7.39809 18.4056 7.49813 18.4184 7.60045 18.4167H19.5C19.9784 18.4167 20.4002 18.1028 20.5377 17.6446L23.7877 6.81128C23.8861 6.48327 23.8236 6.12805 23.6192 5.85331C23.4148 5.57857 23.0925 5.41665 22.75 5.41665H6.84612L6.48982 3.10069C6.47647 3.00386 6.45033 2.91112 6.41315 2.82422C6.34566 2.66597 6.24232 2.52889 6.11467 2.42144C5.99624 2.32157 5.85609 2.24663 5.70233 2.20471C5.60555 2.1782 5.50401 2.16493 5.40011 2.16665H3.25002C2.65171 2.16665 2.16669 2.65168 2.16669 3.24999C2.16669 3.84829 2.65171 4.33332 3.25002 4.33332H4.48729ZM8.51279 16.25L7.17945 7.58332H21.294L18.694 16.25H8.51279Z" fill="white"/>
<path d="M10.8334 21.6667C10.8334 22.8633 9.8633 23.8333 8.66669 23.8333C7.47007 23.8333 6.50002 22.8633 6.50002 21.6667C6.50002 20.47 7.47007 19.5 8.66669 19.5C9.8633 19.5 10.8334 20.47 10.8334 21.6667Z" fill="white"/>
<path d="M20.5834 21.6667C20.5834 22.8633 19.6133 23.8333 18.4167 23.8333C17.2201 23.8333 16.25 22.8633 16.25 21.6667C16.25 20.47 17.2201 19.5 18.4167 19.5C19.6133 19.5 20.5834 20.47 20.5834 21.6667Z" fill="white"/>
</svg>
