<svg width="26" height="24" viewBox="0 0 26 24" fill="none" xmlns="http://www.w3.org/2000/svg">
<path d="M13 2C13.5983 2 14.0834 2.44772 14.0834 3V4C14.0834 4.55228 13.5983 5 13 5C12.4017 5 11.9167 4.55228 11.9167 4V3C11.9167 2.44772 12.4017 2 13 2ZM20.6604 4.92893C21.0835 5.31945 21.0835 5.95261 20.6604 6.34314L19.8944 7.05025C19.4713 7.44077 18.7854 7.44077 18.3623 7.05025C17.9392 6.65972 17.9392 6.02656 18.3623 5.63603L19.1283 4.92893C19.5514 4.5384 20.2373 4.5384 20.6604 4.92893ZM5.33969 4.92893C5.76276 4.5384 6.44869 4.5384 6.87175 4.92893L7.63779 5.63603C8.06085 6.02656 8.06085 6.65972 7.63779 7.05025C7.21472 7.44077 6.52879 7.44077 6.10572 7.05025L5.33969 6.34314C4.91662 5.95262 4.91662 5.31945 5.33969 4.92893ZM13 8C10.6068 8 8.66669 9.79086 8.66669 12C8.66669 14.2091 10.6068 16 13 16C15.3933 16 17.3334 14.2091 17.3334 12C17.3334 9.79086 15.3933 8 13 8ZM6.50002 12C6.50002 8.68629 9.41017 6 13 6C16.5899 6 19.5 8.68629 19.5 12C19.5 15.3137 16.5899 18 13 18C9.41017 18 6.50002 15.3137 6.50002 12ZM2.16669 12C2.16669 11.4477 2.65171 11 3.25002 11H4.33335C4.93166 11 5.41669 11.4477 5.41669 12C5.41669 12.5523 4.93166 13 4.33335 13H3.25002C2.65171 13 2.16669 12.5523 2.16669 12ZM20.5834 12C20.5834 11.4477 21.0684 11 21.6667 11H22.75C23.3483 11 23.8334 11.4477 23.8334 12C23.8334 12.5523 23.3483 13 22.75 13H21.6667C21.0684 13 20.5834 12.5523 20.5834 12ZM6.10572 16.9497C6.52879 16.5592 7.21472 16.5592 7.63779 16.9497C8.06085 17.3403 8.06085 17.9734 7.63779 18.364L6.87175 19.0711C6.44869 19.4616 5.76276 19.4616 5.33969 19.0711C4.91662 18.6805 4.91662 18.0474 5.33969 17.6568L6.10572 16.9497ZM18.3623 18.364C17.9392 17.9734 17.9392 17.3403 18.3623 16.9497C18.7854 16.5592 19.4713 16.5592 19.8944 16.9497L20.6604 17.6568C21.0835 18.0474 21.0835 18.6805 20.6604 19.0711C20.2373 19.4616 19.5514 19.4616 19.1283 19.0711L18.3623 18.364ZM13 19C13.5983 19 14.0834 19.4477 14.0834 20V21C14.0834 21.5523 13.5983 22 13 22C12.4017 22 11.9167 21.5523 11.9167 21V20C11.9167 19.4477 12.4017 19 13 19Z" fill="white"/>
</svg>
