<svg width="210" height="60" viewBox="0 0 210 60" fill="none" xmlns="http://www.w3.org/2000/svg">
<path d="M0.638726 1.65152H27.8939C51.343 1.65152 60.5127 15.4698 60.5127 30.1055C60.5127 44.9961 48.7444 58.2606 26.3715 58.2606H0.682474C0.209992 58.2606 0.0437483 57.9617 0.0437483 57.7068C0.0437483 57.4079 0.341237 57.153 0.761221 57.153H5.56479C7.05223 57.153 8.02344 56.2564 8.02344 54.5951V5.40494C8.02344 4.17431 7.42847 2.80304 5.47729 2.80304H0.594977C0.209992 2.80304 0 2.54813 0 2.24926C0 1.99434 0.0874966 1.65152 0.638726 1.65152ZM17.6656 55.6235C17.6656 56.8541 18.2168 57.2409 19.0218 57.2409H26.249C44.0458 57.2409 50.4943 43.5457 50.4943 29.8154C50.4943 16.0851 43.6608 2.75029 28.6202 2.75029H18.8118C17.7881 2.75029 17.7093 3.60295 17.7093 3.98972L17.6656 55.6059V55.6235ZM63.2251 1.65152C62.8051 1.65152 62.4201 1.82733 62.4201 2.16135C62.4201 2.49538 62.6301 2.71514 63.0151 2.71514H67.8099C68.9211 2.71514 69.9798 3.48867 69.9798 5.61591V54.639C69.9798 55.6587 69.2099 57.1882 67.8537 57.1882H63.1026C62.5514 57.1882 62.5076 57.6277 62.5076 57.7947C62.5076 57.9617 62.4639 58.2606 63.1026 58.2606H86.2017C86.5429 58.2606 87.0067 58.2166 87.0067 57.8738C87.0067 57.531 86.9192 57.197 86.3242 57.197H81.8619C81.2319 57.197 79.4907 56.8102 79.4907 54.85V5.10608C79.4907 3.69964 80.3832 2.75909 81.9931 2.75909H86.368C86.7529 2.75909 86.9629 2.54813 86.9629 2.24926C86.9629 1.95039 86.7529 1.69547 86.2367 1.69547C86.2367 1.65152 63.1376 1.78337 63.2251 1.65152ZM99.3175 29.9824C99.3175 14.327 106.282 1.65152 119.354 1.65152C132.181 1.65152 139.4 14.327 139.4 29.9824C139.4 45.6378 132.82 58.3045 119.363 58.3045C106.326 58.3485 99.3262 45.6378 99.3262 29.9824M119.363 59.5C137.965 59.5 149.681 46.2795 149.681 30.0176C149.681 13.7557 138.087 0.5 119.363 0.5C100.682 0.5 89.0453 13.7205 89.0453 29.9824C89.0453 46.2443 101.146 59.5 119.363 59.5ZM209.135 57.9178C201.829 58.6913 197.786 46.6663 194.094 40.9438C191.338 36.7245 185.475 32.4173 179.701 31.5559C189.212 31.0021 199.869 27.9343 199.869 17.0959C199.869 8.30572 194.479 1.65152 174.687 1.65152H151.894C151.597 1.65152 151.299 1.82733 151.299 2.16135C151.299 2.49538 151.597 2.71514 151.894 2.71514H157.118C158.22 2.71514 159.288 3.48867 159.288 5.61591V54.639C159.288 55.6587 158.518 57.1882 157.161 57.1882H152.025C151.597 57.1882 151.43 57.5398 151.43 57.7068C151.43 57.8738 151.605 58.2606 152.025 58.2606H176.227C176.568 58.2606 176.866 58.0848 176.866 57.7507C176.866 57.4167 176.656 57.197 176.183 57.197H171.301C170.662 57.197 168.921 56.7662 168.921 54.85V31.6877H171.432C183.402 31.6877 184.294 44.7412 190.244 52.2041C195.336 58.6034 202.004 59.4121 205.783 59.4121C207.393 59.4121 208.496 59.3681 209.519 59.1132C210.158 58.9023 210.281 57.7947 209.135 57.9178ZM171.345 2.71514H174.871C180.899 2.71514 190.664 5.10608 190.664 16.5422C190.664 27.0377 182.002 30.5802 173.978 30.5802H168.842V5.10608C168.842 3.65569 169.735 2.72393 171.345 2.72393" fill="black"/>
</svg>
