<svg width="108" height="108" viewBox="0 0 108 108" fill="none" xmlns="http://www.w3.org/2000/svg">
<path fill-rule="evenodd" clip-rule="evenodd" d="M81.7903 47.4814C81.4639 47.4814 80.5802 47.5746 80.0683 47.6673C79.974 47.9471 78.6251 48.5522 78.9504 50.2286C79.1824 51.2533 79.6953 51.9983 79.4622 52.1842C78.8105 52.5567 77.8801 51.905 77.0414 51.5792C76.2043 51.1601 74.9014 50.6011 74.0621 51.6724C73.3171 52.6966 75.8778 52.5567 78.0661 53.7208C79.6959 54.5595 80.8133 54.373 83.4201 54.6528C86.0274 54.8382 86.1662 53.7208 86.5847 53.768C86.9589 53.8612 86.819 54.8848 88.0291 55.2579C88.5876 55.3977 89.8443 54.6983 90.0769 54.7916C90.4499 54.8382 90.4499 55.5843 91.3337 55.9562C92.3118 56.236 92.5915 55.6775 92.9168 55.5376C93.1966 55.3977 93.2432 56.0961 93.8017 56.236C94.3601 56.3292 95.1983 56.2826 95.6174 56.3292C95.9427 56.4691 95.6174 56.8877 96.5489 57.0275C97.386 57.1674 97.6658 56.7011 98.0843 56.841C98.4107 56.9809 98.8304 57.9124 100.598 57.7725C101.716 57.6792 101.438 56.9809 101.157 56.4691C100.83 55.9562 98.4107 55.5376 94.5 54.1404C87.8898 51.8589 86.1201 52.4179 84.724 49.7168C84.1656 48.5994 83.8403 47.9937 83.747 47.6218C83.3734 47.528 82.6751 47.5752 81.7903 47.4814Z" fill="#CC2229"/>
<path d="M104.043 54.9786C103.762 54.7921 102.832 55.6781 102.46 55.5382C102.041 55.3983 101.715 54.8388 101.389 54.6989C100.97 54.5601 100.737 54.7921 100.319 54.6989C99.9922 54.6534 100.225 54.1404 99.9456 54.0005C99.5725 53.8618 99.386 54.2337 98.9675 54.0938C98.6411 54.0005 98.409 53.396 98.1293 53.2561C97.804 53.1634 97.7107 53.5814 97.3388 53.4421C96.8259 53.2561 96.686 52.8831 96.3607 52.7438C96.0809 52.5573 95.4759 53.1157 95.0573 52.8831C94.6376 52.6972 94.6376 51.2533 94.3579 51.1134C94.0326 50.9741 93.0079 52.1382 92.5893 51.8589C92.2163 51.673 92.3562 50.6011 92.0297 50.4151C91.7511 50.2286 90.4943 51.3 90.1679 51.1601C89.8893 51.0202 89.8415 50.4617 89.423 50.4151C89.0499 50.3685 88.3983 50.8809 87.9797 50.741C87.1415 50.4151 86.1173 50.555 84.8606 47.5746C84.7207 47.2022 84.442 46.969 84.1622 47.1089C83.4173 47.3881 83.6971 47.6673 84.7207 49.7168C86.1173 52.4179 87.8864 51.8589 94.4966 54.1404C98.4074 55.5382 100.827 55.9562 101.153 56.4691C101.434 56.9809 101.713 57.6792 100.595 57.7725C98.8265 57.9124 98.4074 56.9809 98.081 56.841C97.6624 56.7011 97.3826 57.1674 96.5455 57.0275C95.6141 56.8877 95.9394 56.4691 95.6141 56.3292C95.1944 56.2826 94.3562 56.3292 93.7983 56.236C93.2399 56.0961 93.1933 55.3977 92.9135 55.5376C92.5882 55.6775 92.3084 56.236 91.3303 55.9562C90.4466 55.5843 90.4466 54.8382 90.0736 54.7916C89.8404 54.6983 88.5837 55.3977 88.0258 55.2579C86.8156 54.8848 86.9555 53.8612 86.5814 53.768C86.1628 53.7213 86.0241 54.8382 83.4167 54.6528C80.8105 54.373 79.6925 54.5595 78.0627 53.7208C75.8751 52.5567 73.3138 52.6966 74.0588 51.6724C74.8981 50.6011 76.2009 51.1601 77.038 51.5792C77.8773 51.905 78.8077 52.5567 79.4588 52.1842C79.692 51.9983 79.1791 51.2533 78.947 50.2286C78.6217 48.4128 80.2049 47.8539 80.065 47.5746C79.8319 47.2482 78.947 46.7831 76.806 47.1089C75.3627 47.3415 72.5689 49.5303 71.8705 49.8567C71.1722 50.2752 68.2873 51.8123 66.703 49.5303C65.121 47.2022 66.5643 44.8274 67.216 44.0825C67.821 43.3375 68.8458 42.7785 69.2171 43.3375C69.73 44.2224 68.5188 44.4549 68.007 45.0606C67.5407 45.6662 66.7969 47.7151 67.634 48.6466C68.5188 49.5775 70.148 49.6707 72.0099 48.2741C73.5464 47.11 76.0605 45.4797 78.5268 45.6667C81.0409 45.8055 82.3454 46.9701 82.7173 47.0639C83.0903 47.11 83.4156 46.2724 83.9274 46.0858C84.3005 45.946 84.8123 46.4117 85.1376 46.2718C85.4173 46.0858 85.7437 45.3403 86.1157 45.2005C86.5353 45.0606 87.56 45.7589 87.8853 45.5263C88.1651 45.3864 88.1185 44.5021 88.5837 44.4555C89.0488 44.3622 89.8404 45.2005 90.1668 45.0606C90.5854 44.828 90.5854 44.3617 91.0039 44.3617C91.3303 44.3617 92.0753 45.4797 92.4483 45.3864C92.727 45.3403 92.6348 44.2229 93.0534 44.083C93.4719 43.9431 94.5433 44.828 94.9157 44.6881C95.1944 44.5488 95.241 43.1976 95.7528 42.9184C96.2191 42.7325 96.6843 43.4774 96.9641 43.3375C97.3371 43.1976 97.5692 41.6605 97.9888 41.6145C98.3607 41.5678 99.1057 42.033 99.431 41.9403C99.7108 41.8937 99.5709 40.497 100.129 40.2173C100.689 40.0313 101.387 40.9161 101.574 40.8701C101.852 40.7768 101.992 40.0313 102.272 39.9847C102.597 39.8914 103.436 40.5897 103.855 40.497C104.18 40.3572 104.042 39.333 104.414 39.2858C104.693 39.1925 105.857 39.4257 105.764 38.1217C105.717 36.8178 104.042 35.5605 102.459 35.5605C99.572 35.5605 96.686 36.8178 94.218 37.2835C91.7516 37.7026 86.6774 39.1925 85.4196 39.4262C84.1628 39.6122 82.9521 38.9139 84.0695 38.0285C84.9544 37.1903 85.4196 37.8425 85.4196 37.5633C85.4196 37.2835 84.8611 37.0043 84.0695 36.8644C83.2313 36.7251 82.2543 37.5633 81.1835 37.4234C80.1133 37.2835 79.0425 36.4459 77.879 36.6785C75.0396 37.0043 74.62 38.2622 73.1767 38.7734C71.7334 39.333 70.6626 38.9139 69.871 39.0066C67.9165 39.2858 67.2182 40.4504 65.7749 40.31C64.0519 40.1701 63.2142 39.1925 61.3524 38.6796C59.5827 38.1212 56.1849 37.6088 55.3928 37.3296C54.5557 37.0032 50.8781 36.1184 49.9933 36.0257C49.0157 35.8858 48.55 36.165 48.1314 36.165C47.6651 36.165 47.0601 35.8858 46.4084 35.8391C45.8028 35.7459 44.8252 35.6998 44.4072 35.8391C44.0364 36.0268 43.8971 36.0268 43.3847 35.8869C42.9662 35.8403 41.4296 35.561 40.7779 35.6543C39.8465 35.7009 39.474 36.306 38.7762 36.3992C38.1245 36.4459 37.4728 36.1195 36.7284 36.2594C35.984 36.3993 35.3784 36.6785 34.7267 36.8644C34.1217 37.0976 33.0042 36.9577 32.4924 37.0038C31.0958 37.3302 30.9093 38.0285 30.3975 38.0285C29.9317 38.0285 28.2564 37.7493 27.744 38.0285C27.1851 38.2616 26.7199 38.6802 26.3008 38.7268C25.789 38.7729 23.9266 39.0532 22.7625 38.9133C22.1108 38.8667 20.9934 39.4257 20.5282 39.565C19.9698 39.7049 18.6658 39.7049 18.2934 39.0532C17.9209 38.2616 18.9451 37.0976 20.6681 35.7004C21.8316 34.815 28.3957 30.2048 39.056 28.4823C47.3892 27.0857 57.118 23.593 59.1669 21.4508C60.0518 20.566 63.6361 17.539 64.5198 15.6766C65.4047 13.8137 65.6833 12.7429 65.2181 12.7895C64.753 12.9294 64.1945 13.9069 63.3097 14.2328C62.4715 14.512 61.7265 14.0468 61.0754 14.326C60.4703 14.512 59.772 15.4901 59.1209 15.5367C58.4225 15.6294 58.1428 15.0243 57.6298 15.2569C57.118 15.6294 56.2809 16.2356 55.7214 16.3744C54.5579 16.5609 54.5113 15.2109 53.4405 15.7693C52.323 16.3277 51.532 17.2598 50.4151 17.4923C49.3904 17.6322 49.5297 16.8406 48.832 16.8406C47.714 16.8406 46.6443 18.3777 46.1319 18.3777C45.6201 18.3777 45.2005 17.539 44.5493 17.6328C43.9437 17.6789 42.0353 19.1227 41.2903 19.3558C40.4987 19.4957 40.3594 18.285 39.7071 18.3783C38.9161 18.4249 37.4728 19.8221 36.6813 20.0086C35.8436 20.148 35.3779 19.5895 34.8194 19.5895C34.261 19.5895 32.5385 21.0334 31.7003 21.266C30.4902 21.5452 30.3969 20.0092 29.0935 20.1019C28.1626 20.1485 27.1845 21.4064 26.4407 21.4525C25.6485 21.5452 25.3227 20.9401 24.4384 21.1266C23.4609 21.4058 21.5524 22.7092 20.9001 22.8497C20.2951 22.9896 19.8293 22.6171 19.0844 22.8497C17.6877 23.2688 16.3849 25.1317 15.4995 25.5974C14.5225 26.1559 13.8242 25.8767 13.3118 26.2025C12.3809 26.8542 12.241 28.1581 11.3562 28.5312C10.5657 28.9503 10.6118 28.3447 9.86631 28.8098C8.6101 29.7408 9.07584 30.766 8.70336 31.2318C8.33088 31.6969 7.30616 32.0694 6.70109 32.8149C6.09547 33.5133 6.09547 33.9329 5.86288 34.3987C5.58422 34.8644 4.51342 36.261 4.28028 36.8667C4.1415 37.4701 4.42016 38.1217 4.1415 38.5875C3.95554 39.0066 3.53643 39.7055 3.30384 40.2173C2.93137 41.4285 3.44373 42.6392 3.3971 43.1049C3.30384 43.5235 2.83811 44.2224 2.83811 44.7814C2.83811 45.3403 3.3971 46.4111 3.25722 47.2488C3.11788 48.0876 1.39539 53.6286 2.37293 56.1433C3.44373 58.7506 5.02634 60.1483 5.58478 59.9152C6.18984 59.7287 5.81736 58.6107 6.42243 57.5876C7.0275 56.6084 7.72582 55.3989 8.28481 56.2365C8.74999 57.0281 7.16738 57.0281 7.0275 59.3101C6.84153 61.4978 7.1202 60.5669 7.0275 61.2191C6.98087 61.9175 5.58422 63.2214 5.58422 63.8265C5.58422 64.4782 5.72411 66.1085 7.77189 67.8316C9.02921 68.9484 9.30843 69.6939 9.63372 69.7406C9.91294 69.8338 10.1927 68.4361 10.7978 68.1563C11.636 67.7833 13.4512 69.4142 13.777 69.3675C14.1961 69.2277 14.3355 66.9922 15.0804 66.5737C15.8259 66.2473 17.6417 67.6917 18.0142 67.5052C18.3861 67.2254 17.967 65.8282 18.1535 65.2697C18.3861 64.7579 19.4102 64.6181 19.0844 63.6866C18.8052 62.7551 18.6653 60.9394 15.3607 60.7062C14.3826 60.613 13.0332 60.4742 13.9175 59.4495C14.9416 58.4247 16.0585 54.6528 13.6377 51.7196C12.6141 50.4617 10.286 51.1601 9.63427 51.4398C8.47077 51.8589 7.30671 53.396 6.84153 52.9769C6.42243 52.5578 7.77245 50.8348 9.86686 50.2292C11.9152 49.5769 14.5225 49.7173 15.5467 52.2781C17.3619 56.7478 15.5467 58.8438 15.7799 59.3096C16.0585 59.7748 17.0827 59.263 18.526 60.1478C20.5743 61.4978 20.2951 62.6619 20.8069 63.0815C21.2721 63.4534 23.7395 63.64 26.021 63.7798C28.3486 63.9197 30.9087 64.5248 31.9795 63.9197C33.702 63.0349 33.8413 59.7281 37.8448 57.3062C39.8465 56.0961 42.4999 54.8854 45.4791 55.3977C48.7848 55.8629 48.8314 56.3292 48.5516 56.7478C48.505 56.9809 48.4129 57.3062 48.3657 57.2607C46.7825 56.4225 44.5021 56.3292 43.1049 56.6079C41.0566 56.9809 37.565 57.5405 35.0048 62.0102C32.4908 66.4804 36.5408 66.5271 36.9599 66.667C37.4256 66.8535 38.1706 67.0855 38.124 68.39C38.0307 69.6945 38.4498 70.4389 38.9156 71.2771C39.474 72.0221 40.3588 72.6271 40.3588 72.6271C40.3588 72.6271 41.01 71.1372 41.7555 70.8114C42.5004 70.3928 43.3847 71.1378 43.8038 71.6041C45.1072 73.2805 44.5493 70.1597 45.4797 69.8344C46.8303 69.4147 47.3415 71.4175 48.087 71.0445C49.437 70.4395 48.6921 69.508 49.6702 69.1355C50.6938 68.8557 51.2994 69.6951 51.718 69.4153C52.1831 69.0889 52.1371 66.2029 51.2522 65.0383C50.2747 63.827 48.832 61.7781 45.7589 61.7781C42.733 61.7781 41.7555 61.3596 41.8948 60.7534C42.0347 60.1483 42.6398 59.7287 43.3847 60.0085C44.5493 60.427 44.6881 60.3337 46.5499 60.427C49.25 60.4747 48.6449 61.6382 50.8798 62.6158C52.5562 63.3141 54.7438 62.1495 57.4439 62.6158C60.19 63.0821 62.4715 63.5939 64.9844 63.454C69.7345 63.3141 74.9947 61.2197 76.0183 61.0798C77.0896 60.8933 77.6481 61.0332 77.6481 60.7068C77.6481 60.427 73.039 59.7287 73.3177 58.6113C73.6907 57.541 75.8784 58.4259 78.9043 59.1242C81.9302 59.7759 88.4005 60.3343 90.9151 60.1955C93.6157 60.1489 98.2236 61.3601 101.994 60.4753C103.903 60.009 105.719 58.8444 105.905 57.5416C106.138 56.236 104.415 55.2584 104.043 54.9786ZM78.0661 39.0066C78.811 38.8667 80.115 39.1925 79.7891 40.0308C79.5093 40.8695 79.3706 40.7291 78.7644 40.8695C78.1593 41.0083 76.9026 41.1482 76.5767 40.5892C76.2969 40.0308 77.2284 39.1925 78.0661 39.0066ZM59.1203 17.539C59.5855 17.7721 59.6321 18.4244 59.5855 18.8435C59.4456 19.2159 59.2136 19.5884 58.9804 19.5884C58.6074 19.5884 58.6074 19.0761 58.4686 18.5637C58.3276 18.1446 58.6074 17.2598 59.1203 17.539ZM54.8377 18.8429C55.8146 19.0755 55.4427 19.9609 55.2562 20.9851C55.1163 21.6834 54.5113 21.8699 54.418 22.0092C54.0922 22.6149 53.9994 19.9609 53.9994 19.9609C53.9994 19.9609 54.2787 18.703 54.8377 18.8429ZM50.0887 19.5884C50.4612 19.5418 51.1135 20.9856 50.7404 22.2429C50.3219 23.4536 49.8095 23.4536 49.8095 23.4536C49.8095 23.4536 49.6702 22.1031 49.5297 21.9632C49.3904 21.73 49.1112 19.821 50.0887 19.5884ZM45.8055 20.2867C46.6909 19.9609 46.9241 21.9632 46.5044 22.9879C46.1319 24.0587 46.1319 24.7109 45.4797 24.2913C44.6881 23.9188 45.3404 22.6154 45.1072 22.2429C44.828 21.5901 45.0611 20.6592 45.8055 20.2867ZM41.0572 21.4047C42.1746 21.2648 42.0347 23.034 41.7555 24.0126C41.4296 24.8969 41.197 25.316 40.7319 25.1767C40.2195 24.9902 40.8712 23.8255 40.592 23.3137C40.2195 22.848 40.4521 21.4508 41.0572 21.4047ZM36.1694 22.289C36.8211 22.4283 37.2869 23.4064 36.961 24.757C36.6818 26.1542 36.2627 26.4801 35.8902 26.4801C35.5178 26.4801 36.0296 24.2913 35.7037 24.2913C35.4245 24.2913 35.3784 22.1491 36.1694 22.289ZM31.3744 23.9188C31.7935 23.9188 32.7245 24.7104 32.2587 26.1542C31.7935 27.6441 31.7935 27.5048 31.3744 27.6441C30.9087 27.7374 31.2351 26.7593 30.9553 26.2008C30.6295 25.7346 30.2104 23.8722 31.3744 23.9188ZM27.0452 25.4559C27.8834 25.4093 28.2092 27.1789 28.0227 27.9233C27.8834 28.6683 27.6036 29.6003 27.0918 29.4604C26.6261 29.3677 27.1845 28.0172 26.766 28.0172C26.4401 28.0166 25.7884 25.5025 27.0452 25.4559ZM24.2985 30.5312C23.7401 31.556 23.7861 31.556 23.4142 31.556C23.0417 31.556 23.2743 30.066 22.8558 30.066C22.4833 30.066 22.1575 27.8773 23.321 27.784C24.5777 27.7374 24.6244 29.7863 24.2985 30.5312ZM22.4367 23.5463C22.7159 23.5463 23.4142 24.0121 22.7625 24.7104C22.1575 25.4087 22.1108 25.8744 21.5524 25.5952C20.9934 25.4093 21.5518 23.593 22.4367 23.5463ZM6.60839 38.2616C6.98031 38.2616 7.4466 39.1925 7.39997 39.5656C7.30671 39.8448 7.26064 40.3105 6.70165 40.4504C6.18984 40.5892 6.00388 39.7521 6.00388 39.6122C5.95725 39.4262 5.81736 38.1684 6.60839 38.2616ZM7.16738 44.3611C6.88816 44.3611 6.56176 44.3611 6.32917 44.1757C6.18929 43.9426 5.25837 43.0117 5.9567 42.0796C6.00333 41.9403 7.16738 42.7319 7.39997 43.2443C7.53986 43.6162 7.53986 44.3611 7.16738 44.3611ZM8.14437 36.5847C8.00448 36.8172 7.63256 36.9571 7.39997 36.8172C7.0275 36.5847 7.0275 35.8397 7.16738 35.7004C7.26008 35.6537 7.30671 34.5358 8.05111 34.6751C8.42359 34.7217 8.00448 35.6532 8.05111 35.7464C8.14437 35.8869 8.33088 36.3987 8.14437 36.5847ZM39.1487 41.3347C39.1953 41.0088 39.7071 40.7296 40.2195 40.8695C40.8712 40.9156 41.6161 41.4746 41.4768 41.8937C41.4302 42.3128 40.7319 42.6386 40.0335 42.3128C39.4279 42.033 39.0094 41.7538 39.1487 41.3347ZM40.0796 44.3611C40.4987 44.3151 41.6161 44.2224 41.5229 44.8274C41.4768 45.3859 41.197 45.5257 40.3128 45.6656C39.4279 45.8044 38.8695 45.2465 38.8695 44.9673C38.9161 44.5016 39.6144 44.4549 40.0796 44.3611ZM37.7521 37.9824C38.2639 37.9824 38.7296 38.401 38.5897 38.7268C38.4504 39.0532 38.4037 39.4718 37.4728 39.2858C37.147 39.1459 36.7279 38.6802 36.7279 38.401C36.7284 37.8425 37.2869 37.8892 37.7521 37.9824ZM32.7245 39.1459C32.8172 38.6802 33.702 38.5875 34.1211 38.7734C34.5868 39.0066 34.8661 39.6122 34.5868 39.8914C34.261 40.1246 33.9351 40.0313 33.3762 39.8914C32.8177 39.7515 32.6784 39.6117 32.7245 39.1459ZM32.1194 41.2886C32.8177 41.2886 33.6554 41.8004 33.2829 42.1729C33.0037 42.4521 32.7245 42.6386 31.9795 42.6386C31.2346 42.6386 30.9553 42.3594 30.9553 41.9403C30.9553 41.5678 31.4211 41.1954 32.1194 41.2886ZM30.9087 44.3611C31.7003 44.2224 32.2587 44.6875 32.2127 45.1066C32.2127 45.5257 31.5143 45.8982 31.0486 45.8982C30.4902 45.8982 29.6986 45.7583 29.6053 45.1066C29.5126 44.5482 30.4902 44.4549 30.9087 44.3611ZM28.7677 48.087C28.6283 47.6679 29.6053 47.4814 30.0711 47.3881C30.4902 47.3415 31.3744 47.528 31.2351 47.9471C31.0958 48.273 30.816 48.6921 30.0711 48.6921C29.3261 48.646 28.907 48.4129 28.7677 48.087ZM29.9312 50.6943C29.7918 51.3 29.2334 51.3927 28.8143 51.4393C28.3486 51.5325 27.6036 51.4393 27.6036 50.9741C27.6036 50.4617 28.2559 50.0893 28.6283 49.9494C29.3733 49.8106 30.0711 50.2286 29.9312 50.6943ZM27.8834 39.2858C28.162 39.3324 29.0469 39.565 29.0935 39.9841C29.0935 40.31 29.3261 40.7757 28.3486 40.7757C27.4643 40.7757 27.0918 40.6358 26.9053 40.1701C26.6261 39.6116 27.6036 39.1925 27.8834 39.2858ZM27.7435 42.592C28.6744 42.7785 28.8143 42.7785 28.907 43.1971C28.9536 43.6162 28.2559 43.8954 27.4637 44.0353C26.6255 44.1752 26.1603 43.8027 25.9272 43.3836C25.7884 43.0117 26.8126 42.4521 27.7435 42.592ZM26.1609 46.4106C26.6261 46.364 27.1845 46.5499 27.1845 47.0628C27.0918 47.4814 26.8126 47.6679 26.3468 47.8544C25.9277 48.087 24.9968 47.7145 24.8569 47.3887C24.7171 47.0628 25.6485 46.5038 26.1609 46.4106ZM25.3221 50.2752C25.3221 50.6943 24.4845 51.0202 24.0654 51.1134C23.7395 51.1601 23.4603 51.4393 23.1811 51.1601C22.8552 50.8809 22.9019 50.6011 23.1344 50.4151C23.2738 50.2286 24.1586 49.8101 24.3451 49.7168C24.7171 49.5769 25.3693 49.9494 25.3221 50.2752ZM23.4142 40.3566C24.1592 40.3566 24.485 40.7757 24.6249 41.1482C24.7176 41.474 24.6249 41.66 24.4384 41.7999C24.2991 41.9398 23.4608 41.8931 22.9951 41.6139C22.3434 41.2886 22.576 40.3566 23.4142 40.3566ZM19.69 30.066C20.7142 29.9728 20.9001 31.37 20.6676 32.6273C20.2951 33.8374 20.1552 33.8374 19.69 33.6987C19.2709 33.5588 19.69 32.8599 19.4102 32.534C19.0844 32.2548 18.526 30.1121 19.69 30.066ZM18.9445 24.8503C19.876 24.7109 19.5501 25.875 19.3636 26.2008C19.0844 26.6199 19.4102 27.225 18.8052 27.1784C18.1535 27.0857 18.2467 26.2935 18.1535 25.8744C18.1069 25.4093 18.3866 24.8963 18.9445 24.8503ZM15.64 29.0413C15.8259 28.7621 15.9658 28.0638 16.5709 28.0172C16.9894 27.9239 16.8501 29.088 16.8035 29.6469C16.8035 30.2054 16.9434 30.9043 16.1984 30.625C15.4068 30.3453 15.4068 29.3672 15.64 29.0413ZM12.7534 29.1807C12.8927 29.1807 12.8927 29.0874 12.8927 29.0874C12.8927 29.0874 13.5444 28.0166 14.1961 28.3424C14.4754 28.3891 13.777 29.7391 13.6843 29.9728C13.545 30.3453 13.0793 30.6245 12.6602 30.252C12.2416 29.8329 12.6141 29.1807 12.7534 29.1807ZM10.7983 31.6487C11.1708 31.7885 10.7983 32.9992 10.6584 33.5577C10.6124 34.1167 10.1933 34.3959 9.77416 34.256C9.35506 34.2099 9.5882 33.2313 9.44776 33.2313C9.35505 33.1391 9.91349 31.5093 10.7983 31.6487ZM9.44776 40.9161C9.72753 41.0088 9.77416 41.5678 9.77416 41.6605C9.77416 41.8937 10.0534 42.033 10.1933 42.4521C10.286 42.7785 10.0534 43.1044 9.72809 43.1971C9.35561 43.1971 9.02976 42.4988 9.02976 42.4988C9.02976 42.592 8.74999 40.8695 9.44776 40.9161ZM10.6124 46.6432C10.3326 46.8297 10.0073 46.969 9.5882 46.9224C9.16909 46.7831 8.70392 46.0847 9.07639 45.6656C9.44776 45.3398 10.0073 45.619 10.286 45.8044C10.5657 46.0387 10.8916 46.4106 10.6124 46.6432ZM10.7517 38.7734C10.1933 38.6802 10.4259 37.6094 10.3326 37.6094C10.3326 37.6094 10.8916 35.7009 11.45 36.0268C11.8691 36.306 11.6365 37.5633 11.5899 38.1684C11.4967 38.7268 11.2174 38.9139 10.7517 38.7734ZM11.7753 42.3128C11.5899 42.2195 11.3562 41.0083 12.1944 40.9156C12.5203 40.9156 13.0793 41.5673 13.0793 41.9398C13.0326 42.3589 13.172 42.9179 12.3809 42.8707C11.6365 42.7785 11.9152 42.3594 11.7753 42.3128ZM13.7776 48.2735C13.4989 48.2735 12.9394 48.2274 12.6141 47.7145C12.3349 47.3421 12.2416 46.6904 12.6141 46.5038C12.8933 46.364 13.6377 46.8297 13.9641 47.4814C14.336 48.087 13.9641 48.2735 13.7776 48.2735ZM14.7551 45.9448C14.3826 45.8988 13.9641 45.7583 13.6377 45.3398C13.3124 44.9673 13.3124 44.1757 13.8242 44.0825C14.6152 43.9426 15.0804 44.6415 15.3607 45.2465C15.5467 45.8982 14.9883 45.9448 14.7551 45.9448ZM15.4995 42.6386C15.127 42.6386 14.9416 42.4988 14.7551 42.2195C14.4759 42.033 14.3826 41.1954 15.127 41.1954C15.4995 41.1954 16.0585 41.4746 16.1046 41.8937C16.1984 42.3594 15.8259 42.592 15.4995 42.6386ZM16.1984 33.2318C16.7102 33.2318 17.6422 33.7908 17.3619 35.4206C16.9894 37.0038 16.8035 36.4453 16.4776 36.538C16.1984 36.6779 16.3849 35.6537 16.1984 35.4206C15.8259 35.0015 14.9416 33.2318 16.1984 33.2318ZM17.1293 48.5527C16.8035 48.4129 16.3849 48.2269 16.3377 47.7145C16.1984 47.2488 16.7102 47.1095 17.1293 47.2027C17.6417 47.2488 18.0142 47.6679 18.0142 47.9943C18.0142 48.4129 17.4085 48.646 17.1293 48.5527ZM18.0142 45.3398C17.781 45.3859 17.6417 45.5257 17.1293 45.3859C16.6641 45.1999 15.686 44.1757 16.5709 43.6162C16.8501 43.3836 17.9209 43.6628 18.154 44.4544C18.526 45.1066 18.2928 45.1999 18.0142 45.3398ZM18.1069 42.1729C17.967 42.033 18.2462 41.2886 18.9911 41.4746C19.69 41.6145 19.876 42.0796 19.8293 42.4988C19.69 42.9179 19.2243 42.9179 18.8513 42.8712C18.526 42.7785 18.2928 42.3128 18.1069 42.1729ZM20.9001 50.2752C20.6676 50.4151 20.1552 50.555 19.4569 50.4617C18.8513 50.4151 18.7119 50.2286 18.9445 49.8567C19.2243 49.5303 19.4102 49.4376 19.9692 49.2511C20.5277 49.0185 21.1799 49.2971 21.3198 49.5303C21.4586 49.7168 21.1794 50.2286 20.9001 50.2752ZM21.8311 47.2482C21.4586 47.4814 20.6676 47.2482 20.4344 46.6898C20.2485 46.0847 20.5743 45.9443 20.8535 45.8044C21.1794 45.7578 21.9704 46.1308 22.1108 46.6432C22.1575 46.969 22.1575 47.0628 21.8311 47.2482ZM22.576 44.5482C22.2502 44.5482 21.0395 44.3611 21.2726 43.7561C21.412 43.1044 22.1108 43.1044 22.4833 43.1971C22.7159 43.1971 23.6934 43.5229 23.4608 44.0819C23.321 44.6875 22.9019 44.5016 22.576 44.5482ZM33.2829 55.5376C33.2829 55.8629 33.0969 56.0961 32.8177 56.0961C32.4919 56.0961 31.561 55.8629 31.0952 56.236C30.6295 56.5612 30.3503 57.1674 30.3969 57.5871C30.4902 57.9124 30.4902 58.4253 30.2576 58.5641C30.0716 58.7506 29.1868 58.4253 28.8143 58.4708C28.4884 58.4708 27.3244 58.7506 27.0452 59.3568C26.7193 59.9152 26.9525 60.3337 26.766 60.4747C26.58 60.7068 26.3002 60.8 26.021 60.8C25.7418 60.8933 24.4845 60.7068 24.2985 60.8933C24.0193 61.0798 23.321 61.918 23.1344 61.6382C22.9019 61.3596 22.576 61.4984 23.1811 60.4747C23.4603 60.0085 24.2052 59.4966 24.2985 59.4966C24.3451 59.4966 25.276 59.5888 25.4626 59.45C25.6485 59.2635 26.2075 58.1455 26.4407 57.9124C27.3716 57.1674 27.3249 57.4472 27.6042 57.3062C27.8839 57.2607 28.8148 57.4472 28.9075 57.2607C29.0474 56.9809 29.6059 55.9562 30.0716 55.5376C30.6767 54.9781 31.6548 54.8848 31.7941 54.7916C31.8402 54.6528 32.0733 54.2798 32.2132 54C32.3992 53.7208 33.2374 53.0225 33.7958 53.1623C34.075 53.255 33.0975 54.5595 33.0975 54.8382C33.0037 55.1185 33.2829 55.1652 33.2829 55.5376ZM33.9812 51.5797C33.2829 51.7196 32.5379 51.673 32.4913 51.3005C32.3981 51.0207 32.6312 50.6016 33.0964 50.4157C33.5155 50.2292 33.934 50.369 34.2599 50.369C34.5391 50.369 35.238 50.369 35.1447 50.6016C35.0986 50.8342 34.6795 51.4398 33.9812 51.5797ZM34.9593 48.4129C34.1677 48.5061 33.4233 48.2735 33.516 47.9477C33.6554 47.5752 34.1211 47.2488 34.8194 47.2488C35.5178 47.2027 35.9835 47.3887 35.9835 47.7145C35.9835 47.9943 35.7037 48.3668 34.9593 48.4129ZM36.5419 44.6415C36.4026 45.1999 36.1228 45.3398 35.611 45.3859C35.0986 45.3859 34.0745 45.2465 34.0745 44.4549C34.0745 44.0825 35.1453 43.896 35.3779 43.896C35.611 43.8027 36.5886 44.0825 36.5419 44.6415ZM37.2869 41.6605C37.1942 42.0797 36.5885 42.4521 36.1228 42.3128C35.611 42.1729 34.9593 42.0797 35.0059 41.6145C35.0059 41.3347 35.4245 40.9161 36.1694 41.0088C36.961 41.0088 37.3335 41.3347 37.2869 41.6605ZM39.7538 50.6943C39.5678 50.8808 39.3347 51.3927 38.7762 51.5325C38.2644 51.5792 37.6122 51.8118 37.3329 51.1601C37.1936 50.8342 37.4262 50.555 37.8448 50.2752C38.1706 50.0893 39.288 50.0893 39.288 50.0893C39.288 50.0893 39.4274 49.7168 39.7066 49.9494C39.9864 50.1359 39.9864 50.4617 39.7538 50.6943ZM41.0572 48.2269C40.5914 48.2269 39.474 48.273 39.4274 47.7145C39.288 47.4819 40.033 47.2027 40.4982 47.0628C41.0566 46.9229 41.4291 46.9229 41.6156 46.9696C41.8016 47.0628 42.3139 47.2488 42.3139 47.4819C42.3145 47.7145 41.4768 48.1336 41.0572 48.2269ZM41.6628 38.9139C41.4768 38.4476 41.4302 38.0285 41.6161 37.8425C41.942 37.6094 43.0594 38.0285 43.2454 38.5408C43.5252 39.0066 43.5252 39.5656 43.0594 39.7055C42.5937 39.7515 41.8021 39.333 41.6628 38.9139ZM43.3381 41.6145C43.2448 41.1954 44.083 40.8695 44.642 40.9161C45.1072 41.0088 45.946 41.4746 45.8055 41.9403C45.6201 42.4521 45.5269 42.592 45.1072 42.592C44.6881 42.592 43.3847 42.3128 43.3381 41.6145ZM43.7572 44.9201C43.6639 44.5482 44.5027 44.3611 44.828 44.3611C45.1072 44.3611 46.3651 44.5482 45.9926 45.06C45.7595 45.5257 45.2471 45.7583 44.828 45.7583C44.5027 45.7583 43.8971 45.2465 43.7572 44.9201ZM46.2713 48.832C45.8055 49.1578 45.4797 49.1578 44.9212 49.1578C44.4094 49.1578 44.3156 48.832 44.3156 48.4129C44.3156 48.087 44.828 47.8544 45.0611 47.8078C45.3404 47.7145 45.6662 47.8078 45.946 47.7145C46.1319 47.6679 46.1319 47.6679 46.4112 47.5752C46.6443 47.5286 46.7836 47.4819 46.8303 47.8544C46.9235 48.2269 46.7831 48.5527 46.2713 48.832ZM47.2022 39.4262C46.969 39.5656 46.969 39.7055 46.5039 39.6122C45.9454 39.5656 45.6656 38.7274 45.5263 38.6802C45.3398 38.5875 44.9207 38.1217 45.1067 37.8892C45.3398 37.7026 46.3645 37.7026 46.8297 38.1217C47.3887 38.5875 47.3887 39.2858 47.2022 39.4262ZM48.2263 41.3347C48.3662 41.1954 48.6921 41.0088 49.1112 41.0088C49.5297 41.0088 50.0887 41.2886 50.2752 41.5678C50.4151 41.8937 50.4151 42.1729 50.1354 42.4521C49.9488 42.6386 48.6921 42.3128 48.5056 42.0796C48.2263 41.8004 48.1336 41.5678 48.2263 41.3347ZM48.5522 45.5257C48.4134 45.6656 48.3662 45.1999 48.5522 44.9673C48.832 44.7808 49.437 44.4549 49.8095 44.4549C50.1354 44.4549 50.6938 44.5482 50.6016 44.8274C50.5545 45.1066 50.4612 45.805 49.7168 45.805C48.9713 45.8982 48.6921 45.4791 48.5522 45.5257ZM49.9955 48.9718C49.3904 49.0185 48.9713 48.9252 48.8786 48.4129C48.832 47.9477 49.2977 47.8078 49.3904 47.8078C49.437 47.8078 49.9488 47.7145 50.0887 47.6679C50.4151 47.6679 50.973 47.2488 51.2528 47.6679C51.3916 47.9477 50.6011 48.832 49.9955 48.9718ZM51.9972 39.5656C51.9039 39.7521 51.718 40.3105 51.0191 40.1246C50.3213 39.8914 49.9949 39.5656 49.809 39.2864C49.6696 39.0071 49.1567 38.588 49.5764 38.1689C49.809 37.983 50.8798 38.4015 51.3916 38.774C51.8112 39.1925 52.0438 39.2858 51.9972 39.5656ZM52.4629 41.5678C52.6028 41.2886 53.1612 41.1487 53.5809 41.1487C53.9995 41.1954 54.5579 41.3347 54.65 41.8004C54.7444 42.2195 54.65 42.3594 54.5113 42.592C54.2792 42.7785 53.4405 42.4988 53.1146 42.3594C52.7421 42.2195 52.323 41.7538 52.4629 41.5678ZM52.5562 44.7808C52.5562 44.4549 53.0219 44.5016 53.2545 44.4549C53.3478 44.3617 53.4871 44.2224 53.8596 44.1757C54.1388 44.0825 54.7444 44.0825 54.7444 44.3611C54.8377 44.5482 54.7444 44.9673 53.9994 45.1999C53.1612 45.4791 52.6028 45.1066 52.5562 44.7808ZM55.2562 47.8544C55.2562 47.8544 54.65 48.4129 54.5113 48.646C54.2792 48.7853 53.9062 49.1578 53.3478 48.6926C53.0219 48.3668 53.3478 47.8078 53.5809 47.6679C53.7669 47.4819 55.163 46.6437 55.4427 47.0628C55.6748 47.4814 55.2562 47.8544 55.2562 47.8544ZM56.0928 39.6116C55.8141 40.0308 55.3944 39.9841 54.8837 39.8909C54.4174 39.8442 53.5803 39.2858 53.6264 38.7268C53.7197 38.2616 54.5573 38.401 55.0225 38.5875C55.536 38.7734 56.4192 39.1925 56.0928 39.6116ZM61.6333 46.0387C61.3546 46.0387 60.6563 45.3398 61.7732 45.1999C62.1928 45.1066 62.2394 45.3859 62.2394 45.805C62.2394 46.1314 61.8664 46.0387 61.6333 46.0387ZM62.2394 42.7785C61.7732 42.6386 61.5866 42.4521 61.8664 42.0796C62.1928 41.8004 62.3316 41.8937 62.7501 42.033C63.0765 42.1729 63.1698 42.4521 63.0765 42.7319C63.0299 43.0583 62.7501 42.9184 62.2394 42.7785ZM64.8923 52.837C64.2395 52.6972 63.6355 51.9056 63.3091 51.4398C63.0294 50.8814 62.9372 49.8567 63.1692 49.3915C63.3558 48.8325 63.6355 48.7859 63.9142 48.9724C64.2395 49.1584 64.0541 50.5561 64.2395 50.6022C64.4726 50.7421 64.6125 51.7207 65.2176 51.8601C65.4041 51.8601 65.6372 52.3258 65.6372 52.3258C65.6372 52.3258 65.4041 52.9764 64.8923 52.837Z" stroke="black" stroke-width="0.89647" stroke-miterlimit="2.613"/>
<path fill-rule="evenodd" clip-rule="evenodd" d="M104.043 54.9786C103.762 54.7921 102.832 55.6781 102.46 55.5382C102.041 55.3983 101.715 54.8388 101.389 54.6989C100.97 54.5601 100.737 54.7921 100.319 54.6989C99.9922 54.6534 100.225 54.1404 99.9456 54.0005C99.5725 53.8618 99.386 54.2337 98.9675 54.0938C98.6411 54.0005 98.409 53.396 98.1293 53.2561C97.804 53.1634 97.7107 53.5814 97.3388 53.4421C96.8259 53.2561 96.686 52.8831 96.3607 52.7438C96.0809 52.5573 95.4759 53.1157 95.0573 52.8831C94.6376 52.6972 94.6376 51.2533 94.3579 51.1134C94.0326 50.9741 93.0079 52.1382 92.5893 51.8589C92.2163 51.673 92.3562 50.6011 92.0297 50.4151C91.7511 50.2286 90.4943 51.3 90.1679 51.1601C89.8893 51.0202 89.8415 50.4617 89.423 50.4151C89.0499 50.3685 88.3983 50.8809 87.9797 50.741C87.1415 50.4151 86.1173 50.555 84.8606 47.5746C84.7207 47.2022 84.442 46.969 84.1622 47.1089C83.4173 47.3881 83.6971 47.6673 84.7207 49.7168C86.1173 52.4179 87.8864 51.8589 94.4966 54.1404C98.4074 55.5382 100.827 55.9562 101.153 56.4691C101.434 56.9809 101.713 57.6792 100.595 57.7725C98.8265 57.9124 98.4074 56.9809 98.081 56.841C97.6624 56.7011 97.3826 57.1674 96.5455 57.0275C95.6141 56.8877 95.9394 56.4691 95.6141 56.3292C95.1944 56.2826 94.3562 56.3292 93.7983 56.236C93.2399 56.0961 93.1933 55.3977 92.9135 55.5376C92.5882 55.6775 92.3084 56.236 91.3303 55.9562C90.4466 55.5843 90.4466 54.8382 90.0736 54.7916C89.8404 54.6983 88.5837 55.3977 88.0258 55.2579C86.8156 54.8848 86.9555 53.8612 86.5814 53.768C86.1628 53.7213 86.0241 54.8382 83.4167 54.6528C80.8105 54.373 79.6925 54.5595 78.0627 53.7208C75.8751 52.5567 73.3138 52.6966 74.0588 51.6724C74.8981 50.6011 76.2009 51.1601 77.038 51.5792C77.8773 51.905 78.8077 52.5567 79.4588 52.1842C79.692 51.9983 79.1791 51.2533 78.947 50.2286C78.6217 48.4128 80.2049 47.8539 80.065 47.5746C79.8319 47.2482 78.947 46.7831 76.806 47.1089C75.3627 47.3415 72.5689 49.5303 71.8705 49.8567C71.1722 50.2752 68.2873 51.8123 66.703 49.5303C65.121 47.2022 66.5643 44.8274 67.216 44.0825C67.821 43.3375 68.8458 42.7785 69.2171 43.3375C69.73 44.2224 68.5188 44.4549 68.007 45.0606C67.5407 45.6662 66.7969 47.7151 67.634 48.6466C68.5188 49.5775 70.148 49.6707 72.0099 48.2741C73.5464 47.11 76.0605 45.4797 78.5268 45.6667C81.0409 45.8055 82.3454 46.9701 82.7173 47.0639C83.0903 47.11 83.4156 46.2724 83.9274 46.0858C84.3005 45.946 84.8123 46.4117 85.1376 46.2718C85.4173 46.0858 85.7437 45.3403 86.1157 45.2005C86.5353 45.0606 87.56 45.7589 87.8853 45.5263C88.1651 45.3864 88.1185 44.5021 88.5837 44.4555C89.0488 44.3622 89.8404 45.2005 90.1668 45.0606C90.5854 44.828 90.5854 44.3617 91.0039 44.3617C91.3303 44.3617 92.0753 45.4797 92.4483 45.3864C92.727 45.3403 92.6348 44.2229 93.0534 44.083C93.4719 43.9431 94.5433 44.828 94.9157 44.6881C95.1944 44.5488 95.241 43.1976 95.7528 42.9184C96.2191 42.7325 96.6843 43.4774 96.9641 43.3375C97.3371 43.1976 97.5692 41.6605 97.9888 41.6145C98.3607 41.5678 99.1057 42.033 99.431 41.9403C99.7108 41.8937 99.5709 40.497 100.129 40.2173C100.689 40.0313 101.387 40.9161 101.574 40.8701C101.852 40.7768 101.992 40.0313 102.272 39.9847C102.597 39.8914 103.436 40.5897 103.855 40.497C104.18 40.3572 104.042 39.333 104.414 39.2858C104.693 39.1925 105.857 39.4257 105.764 38.1217C105.717 36.8178 104.042 35.5605 102.459 35.5605C99.572 35.5605 96.686 36.8178 94.218 37.2835C91.7516 37.7026 86.6774 39.1925 85.4196 39.4262C84.1628 39.6122 82.9521 38.9139 84.0695 38.0285C84.9544 37.1903 85.4196 37.8425 85.4196 37.5633C85.4196 37.2835 84.8611 37.0043 84.0695 36.8644C83.2313 36.7251 82.2543 37.5633 81.1835 37.4234C80.1133 37.2835 79.0425 36.4459 77.879 36.6785C75.0396 37.0043 74.62 38.2622 73.1767 38.7734C71.7334 39.333 70.6626 38.9139 69.871 39.0066C67.9165 39.2858 67.2182 40.4504 65.7749 40.31C64.0519 40.1701 63.2142 39.1925 61.3524 38.6796C59.5827 38.1212 56.1849 37.6088 55.3928 37.3296C54.5557 37.0032 50.8781 36.1184 49.9933 36.0257C49.0157 35.8858 48.55 36.165 48.1314 36.165C47.6651 36.165 47.0601 35.8858 46.4084 35.8391C45.8028 35.7459 44.8252 35.6998 44.4072 35.8391C44.0364 36.0268 43.8971 36.0268 43.3847 35.8869C42.9662 35.8403 41.4296 35.561 40.7779 35.6543C39.8465 35.7009 39.474 36.306 38.7762 36.3992C38.1245 36.4459 37.4728 36.1195 36.7284 36.2594C35.984 36.3993 35.3784 36.6785 34.7267 36.8644C34.1217 37.0976 33.0042 36.9577 32.4924 37.0038C31.0958 37.3302 30.9093 38.0285 30.3975 38.0285C29.9317 38.0285 28.2564 37.7493 27.744 38.0285C27.1851 38.2616 26.7199 38.6802 26.3008 38.7268C25.789 38.7729 23.9266 39.0532 22.7625 38.9133C22.1108 38.8667 20.9934 39.4257 20.5282 39.565C19.9698 39.7049 18.6658 39.7049 18.2934 39.0532C17.9209 38.2616 18.9451 37.0976 20.6681 35.7004C21.8316 34.815 28.3957 30.2048 39.056 28.4823C47.3892 27.0857 57.118 23.593 59.1669 21.4508C60.0518 20.566 63.6361 17.539 64.5198 15.6766C65.4047 13.8137 65.6833 12.7429 65.2181 12.7895C64.753 12.9294 64.1945 13.9069 63.3097 14.2328C62.4715 14.512 61.7265 14.0468 61.0754 14.326C60.4703 14.512 59.772 15.4901 59.1209 15.5367C58.4225 15.6294 58.1428 15.0243 57.6298 15.2569C57.118 15.6294 56.2809 16.2356 55.7214 16.3744C54.5579 16.5609 54.5113 15.2109 53.4405 15.7693C52.323 16.3277 51.532 17.2598 50.4151 17.4923C49.3904 17.6322 49.5297 16.8406 48.832 16.8406C47.714 16.8406 46.6443 18.3777 46.1319 18.3777C45.6201 18.3777 45.2005 17.539 44.5493 17.6328C43.9437 17.6789 42.0353 19.1227 41.2903 19.3558C40.4987 19.4957 40.3594 18.285 39.7071 18.3783C38.9161 18.4249 37.4728 19.8221 36.6813 20.0086C35.8436 20.148 35.3779 19.5895 34.8194 19.5895C34.261 19.5895 32.5385 21.0334 31.7003 21.266C30.4902 21.5452 30.3969 20.0092 29.0935 20.1019C28.1626 20.1485 27.1845 21.4064 26.4407 21.4525C25.6485 21.5452 25.3227 20.9401 24.4384 21.1266C23.4609 21.4058 21.5524 22.7092 20.9001 22.8497C20.2951 22.9896 19.8293 22.6171 19.0844 22.8497C17.6877 23.2688 16.3849 25.1317 15.4995 25.5974C14.5225 26.1559 13.8242 25.8767 13.3118 26.2025C12.3809 26.8542 12.241 28.1581 11.3562 28.5312C10.5657 28.9503 10.6118 28.3447 9.86631 28.8098C8.6101 29.7408 9.07584 30.766 8.70336 31.2318C8.33088 31.6969 7.30616 32.0694 6.70109 32.8149C6.09547 33.5133 6.09547 33.9329 5.86288 34.3987C5.58422 34.8644 4.51342 36.261 4.28028 36.8667C4.1415 37.4701 4.42016 38.1217 4.1415 38.5875C3.95554 39.0066 3.53643 39.7055 3.30384 40.2173C2.93137 41.4285 3.44373 42.6392 3.3971 43.1049C3.30384 43.5235 2.83811 44.2224 2.83811 44.7814C2.83811 45.3403 3.3971 46.4111 3.25722 47.2488C3.11788 48.0876 1.39539 53.6286 2.37293 56.1433C3.44373 58.7506 5.02634 60.1483 5.58478 59.9152C6.18984 59.7287 5.81736 58.6107 6.42243 57.5876C7.0275 56.6084 7.72582 55.3989 8.28481 56.2365C8.74999 57.0281 7.16738 57.0281 7.0275 59.3101C6.84153 61.4978 7.1202 60.5669 7.0275 61.2191C6.98087 61.9175 5.58422 63.2214 5.58422 63.8265C5.58422 64.4782 5.72411 66.1085 7.77189 67.8316C9.02921 68.9484 9.30843 69.6939 9.63372 69.7406C9.91294 69.8338 10.1927 68.4361 10.7978 68.1563C11.636 67.7833 13.4512 69.4142 13.777 69.3675C14.1961 69.2277 14.3355 66.9922 15.0804 66.5737C15.8259 66.2473 17.6417 67.6917 18.0142 67.5052C18.3861 67.2254 17.967 65.8282 18.1535 65.2697C18.3861 64.7579 19.4102 64.6181 19.0844 63.6866C18.8052 62.7551 18.6653 60.9394 15.3607 60.7062C14.3826 60.613 13.0332 60.4742 13.9175 59.4495C14.9416 58.4247 16.0585 54.6528 13.6377 51.7196C12.6141 50.4617 10.286 51.1601 9.63427 51.4398C8.47077 51.8589 7.30671 53.396 6.84153 52.9769C6.42243 52.5578 7.77245 50.8348 9.86686 50.2292C11.9152 49.5769 14.5225 49.7173 15.5467 52.2781C17.3619 56.7478 15.5467 58.8438 15.7799 59.3096C16.0585 59.7748 17.0827 59.263 18.526 60.1478C20.5743 61.4978 20.2951 62.6619 20.8069 63.0815C21.2721 63.4534 23.7395 63.64 26.021 63.7798C28.3486 63.9197 30.9087 64.5248 31.9795 63.9197C33.702 63.0349 33.8413 59.7281 37.8448 57.3062C39.8465 56.0961 42.4999 54.8854 45.4791 55.3977C48.7848 55.8629 48.8314 56.3292 48.5516 56.7478C48.505 56.9809 48.4129 57.3062 48.3657 57.2607C46.7825 56.4225 44.5021 56.3292 43.1049 56.6079C41.0566 56.9809 37.565 57.5405 35.0048 62.0102C32.4908 66.4804 36.5408 66.5271 36.9599 66.667C37.4256 66.8535 38.1706 67.0855 38.124 68.39C38.0307 69.6945 38.4498 70.4389 38.9156 71.2771C39.474 72.0221 40.3588 72.6271 40.3588 72.6271C40.3588 72.6271 41.01 71.1372 41.7555 70.8114C42.5004 70.3928 43.3847 71.1378 43.8038 71.6041C45.1072 73.2805 44.5493 70.1597 45.4797 69.8344C46.8303 69.4147 47.3415 71.4175 48.087 71.0445C49.437 70.4395 48.6921 69.508 49.6702 69.1355C50.6938 68.8557 51.2994 69.6951 51.718 69.4153C52.1831 69.0889 52.1371 66.2029 51.2522 65.0383C50.2747 63.827 48.832 61.7781 45.7589 61.7781C42.733 61.7781 41.7555 61.3596 41.8948 60.7534C42.0347 60.1483 42.6398 59.7287 43.3847 60.0085C44.5493 60.427 44.6881 60.3337 46.5499 60.427C49.25 60.4747 48.6449 61.6382 50.8798 62.6158C52.5562 63.3141 54.7438 62.1495 57.4439 62.6158C60.19 63.0821 62.4715 63.5939 64.9844 63.454C69.7345 63.3141 74.9947 61.2197 76.0183 61.0798C77.0896 60.8933 77.6481 61.0332 77.6481 60.7068C77.6481 60.427 73.039 59.7287 73.3177 58.6113C73.6907 57.541 75.8784 58.4259 78.9043 59.1242C81.9302 59.7759 88.4005 60.3343 90.9151 60.1955C93.6157 60.1489 98.2236 61.3601 101.994 60.4753C103.903 60.009 105.719 58.8444 105.905 57.5416C106.138 56.236 104.415 55.2584 104.043 54.9786ZM78.0661 39.0066C78.811 38.8667 80.115 39.1925 79.7891 40.0308C79.5093 40.8695 79.3706 40.7291 78.7644 40.8695C78.1593 41.0083 76.9026 41.1482 76.5767 40.5892C76.2969 40.0308 77.2284 39.1925 78.0661 39.0066ZM59.1203 17.539C59.5855 17.7721 59.6321 18.4244 59.5855 18.8435C59.4456 19.2159 59.2136 19.5884 58.9804 19.5884C58.6074 19.5884 58.6074 19.0761 58.4686 18.5637C58.3276 18.1446 58.6074 17.2598 59.1203 17.539ZM54.8377 18.8429C55.8146 19.0755 55.4427 19.9609 55.2562 20.9851C55.1163 21.6834 54.5113 21.8699 54.418 22.0092C54.0922 22.6149 53.9994 19.9609 53.9994 19.9609C53.9994 19.9609 54.2787 18.703 54.8377 18.8429ZM50.0887 19.5884C50.4612 19.5418 51.1135 20.9856 50.7404 22.2429C50.3219 23.4536 49.8095 23.4536 49.8095 23.4536C49.8095 23.4536 49.6702 22.1031 49.5297 21.9632C49.3904 21.73 49.1112 19.821 50.0887 19.5884ZM45.8055 20.2867C46.6909 19.9609 46.9241 21.9632 46.5044 22.9879C46.1319 24.0587 46.1319 24.7109 45.4797 24.2913C44.6881 23.9188 45.3404 22.6154 45.1072 22.2429C44.828 21.5901 45.0611 20.6592 45.8055 20.2867ZM41.0572 21.4047C42.1746 21.2648 42.0347 23.034 41.7555 24.0126C41.4296 24.8969 41.197 25.316 40.7319 25.1767C40.2195 24.9902 40.8712 23.8255 40.592 23.3137C40.2195 22.848 40.4521 21.4508 41.0572 21.4047ZM36.1694 22.289C36.8211 22.4283 37.2869 23.4064 36.961 24.757C36.6818 26.1542 36.2627 26.4801 35.8902 26.4801C35.5178 26.4801 36.0296 24.2913 35.7037 24.2913C35.4245 24.2913 35.3784 22.1491 36.1694 22.289ZM31.3744 23.9188C31.7935 23.9188 32.7245 24.7104 32.2587 26.1542C31.7935 27.6441 31.7935 27.5048 31.3744 27.6441C30.9087 27.7374 31.2351 26.7593 30.9553 26.2008C30.6295 25.7346 30.2104 23.8722 31.3744 23.9188ZM27.0452 25.4559C27.8834 25.4093 28.2092 27.1789 28.0227 27.9233C27.8834 28.6683 27.6036 29.6003 27.0918 29.4604C26.6261 29.3677 27.1845 28.0172 26.766 28.0172C26.4401 28.0166 25.7884 25.5025 27.0452 25.4559ZM24.2985 30.5312C23.7401 31.556 23.7861 31.556 23.4142 31.556C23.0417 31.556 23.2743 30.066 22.8558 30.066C22.4833 30.066 22.1575 27.8773 23.321 27.784C24.5777 27.7374 24.6244 29.7863 24.2985 30.5312ZM22.4367 23.5463C22.7159 23.5463 23.4142 24.0121 22.7625 24.7104C22.1575 25.4087 22.1108 25.8744 21.5524 25.5952C20.9934 25.4093 21.5518 23.593 22.4367 23.5463ZM6.60839 38.2616C6.98031 38.2616 7.4466 39.1925 7.39997 39.5656C7.30671 39.8448 7.26064 40.3105 6.70165 40.4504C6.18984 40.5892 6.00388 39.7521 6.00388 39.6122C5.95725 39.4262 5.81736 38.1684 6.60839 38.2616ZM7.16738 44.3611C6.88816 44.3611 6.56176 44.3611 6.32917 44.1757C6.18929 43.9426 5.25837 43.0117 5.9567 42.0796C6.00333 41.9403 7.16738 42.7319 7.39997 43.2443C7.53986 43.6162 7.53986 44.3611 7.16738 44.3611ZM8.14437 36.5847C8.00448 36.8172 7.63256 36.9571 7.39997 36.8172C7.0275 36.5847 7.0275 35.8397 7.16738 35.7004C7.26008 35.6537 7.30671 34.5358 8.05111 34.6751C8.42359 34.7217 8.00448 35.6532 8.05111 35.7464C8.14437 35.8869 8.33088 36.3987 8.14437 36.5847ZM39.1487 41.3347C39.1953 41.0088 39.7071 40.7296 40.2195 40.8695C40.8712 40.9156 41.6161 41.4746 41.4768 41.8937C41.4302 42.3128 40.7319 42.6386 40.0335 42.3128C39.4279 42.033 39.0094 41.7538 39.1487 41.3347ZM40.0796 44.3611C40.4987 44.3151 41.6161 44.2224 41.5229 44.8274C41.4768 45.3859 41.197 45.5257 40.3128 45.6656C39.4279 45.8044 38.8695 45.2465 38.8695 44.9673C38.9161 44.5016 39.6144 44.4549 40.0796 44.3611ZM37.7521 37.9824C38.2639 37.9824 38.7296 38.401 38.5897 38.7268C38.4504 39.0532 38.4037 39.4718 37.4728 39.2858C37.147 39.1459 36.7279 38.6802 36.7279 38.401C36.7284 37.8425 37.2869 37.8892 37.7521 37.9824ZM32.7245 39.1459C32.8172 38.6802 33.702 38.5875 34.1211 38.7734C34.5868 39.0066 34.8661 39.6122 34.5868 39.8914C34.261 40.1246 33.9351 40.0313 33.3762 39.8914C32.8177 39.7515 32.6784 39.6117 32.7245 39.1459ZM32.1194 41.2886C32.8177 41.2886 33.6554 41.8004 33.2829 42.1729C33.0037 42.4521 32.7245 42.6386 31.9795 42.6386C31.2346 42.6386 30.9553 42.3594 30.9553 41.9403C30.9553 41.5678 31.4211 41.1954 32.1194 41.2886ZM30.9087 44.3611C31.7003 44.2224 32.2587 44.6875 32.2127 45.1066C32.2127 45.5257 31.5143 45.8982 31.0486 45.8982C30.4902 45.8982 29.6986 45.7583 29.6053 45.1066C29.5126 44.5482 30.4902 44.4549 30.9087 44.3611ZM28.7677 48.087C28.6283 47.6679 29.6053 47.4814 30.0711 47.3881C30.4902 47.3415 31.3744 47.528 31.2351 47.9471C31.0958 48.273 30.816 48.6921 30.0711 48.6921C29.3261 48.646 28.907 48.4129 28.7677 48.087ZM29.9312 50.6943C29.7918 51.3 29.2334 51.3927 28.8143 51.4393C28.3486 51.5325 27.6036 51.4393 27.6036 50.9741C27.6036 50.4617 28.2559 50.0893 28.6283 49.9494C29.3733 49.8106 30.0711 50.2286 29.9312 50.6943ZM27.8834 39.2858C28.162 39.3324 29.0469 39.565 29.0935 39.9841C29.0935 40.31 29.3261 40.7757 28.3486 40.7757C27.4643 40.7757 27.0918 40.6358 26.9053 40.1701C26.6261 39.6116 27.6036 39.1925 27.8834 39.2858ZM27.7435 42.592C28.6744 42.7785 28.8143 42.7785 28.907 43.1971C28.9536 43.6162 28.2559 43.8954 27.4637 44.0353C26.6255 44.1752 26.1603 43.8027 25.9272 43.3836C25.7884 43.0117 26.8126 42.4521 27.7435 42.592ZM26.1609 46.4106C26.6261 46.364 27.1845 46.5499 27.1845 47.0628C27.0918 47.4814 26.8126 47.6679 26.3468 47.8544C25.9277 48.087 24.9968 47.7145 24.8569 47.3887C24.7171 47.0628 25.6485 46.5038 26.1609 46.4106ZM25.3221 50.2752C25.3221 50.6943 24.4845 51.0202 24.0654 51.1134C23.7395 51.1601 23.4603 51.4393 23.1811 51.1601C22.8552 50.8809 22.9019 50.6011 23.1344 50.4151C23.2738 50.2286 24.1586 49.8101 24.3451 49.7168C24.7171 49.5769 25.3693 49.9494 25.3221 50.2752ZM23.4142 40.3566C24.1592 40.3566 24.485 40.7757 24.6249 41.1482C24.7176 41.474 24.6249 41.66 24.4384 41.7999C24.2991 41.9398 23.4608 41.8931 22.9951 41.6139C22.3434 41.2886 22.576 40.3566 23.4142 40.3566ZM19.69 30.066C20.7142 29.9728 20.9001 31.37 20.6676 32.6273C20.2951 33.8374 20.1552 33.8374 19.69 33.6987C19.2709 33.5588 19.69 32.8599 19.4102 32.534C19.0844 32.2548 18.526 30.1121 19.69 30.066ZM18.9445 24.8503C19.876 24.7109 19.5501 25.875 19.3636 26.2008C19.0844 26.6199 19.4102 27.225 18.8052 27.1784C18.1535 27.0857 18.2467 26.2935 18.1535 25.8744C18.1069 25.4093 18.3866 24.8963 18.9445 24.8503ZM15.64 29.0413C15.8259 28.7621 15.9658 28.0638 16.5709 28.0172C16.9894 27.9239 16.8501 29.088 16.8035 29.6469C16.8035 30.2054 16.9434 30.9043 16.1984 30.625C15.4068 30.3453 15.4068 29.3672 15.64 29.0413ZM12.7534 29.1807C12.8927 29.1807 12.8927 29.0874 12.8927 29.0874C12.8927 29.0874 13.5444 28.0166 14.1961 28.3424C14.4754 28.3891 13.777 29.7391 13.6843 29.9728C13.545 30.3453 13.0793 30.6245 12.6602 30.252C12.2416 29.8329 12.6141 29.1807 12.7534 29.1807ZM10.7983 31.6487C11.1708 31.7885 10.7983 32.9992 10.6584 33.5577C10.6124 34.1167 10.1933 34.3959 9.77416 34.256C9.35506 34.2099 9.5882 33.2313 9.44776 33.2313C9.35505 33.1391 9.91349 31.5093 10.7983 31.6487ZM9.44776 40.9161C9.72753 41.0088 9.77416 41.5678 9.77416 41.6605C9.77416 41.8937 10.0534 42.033 10.1933 42.4521C10.286 42.7785 10.0534 43.1044 9.72809 43.1971C9.35561 43.1971 9.02976 42.4988 9.02976 42.4988C9.02976 42.592 8.74999 40.8695 9.44776 40.9161ZM10.6124 46.6432C10.3326 46.8297 10.0073 46.969 9.5882 46.9224C9.16909 46.7831 8.70392 46.0847 9.07639 45.6656C9.44776 45.3398 10.0073 45.619 10.286 45.8044C10.5657 46.0387 10.8916 46.4106 10.6124 46.6432ZM10.7517 38.7734C10.1933 38.6802 10.4259 37.6094 10.3326 37.6094C10.3326 37.6094 10.8916 35.7009 11.45 36.0268C11.8691 36.306 11.6365 37.5633 11.5899 38.1684C11.4967 38.7268 11.2174 38.9139 10.7517 38.7734ZM11.7753 42.3128C11.5899 42.2195 11.3562 41.0083 12.1944 40.9156C12.5203 40.9156 13.0793 41.5673 13.0793 41.9398C13.0326 42.3589 13.172 42.9179 12.3809 42.8707C11.6365 42.7785 11.9152 42.3594 11.7753 42.3128ZM13.7776 48.2735C13.4989 48.2735 12.9394 48.2274 12.6141 47.7145C12.3349 47.3421 12.2416 46.6904 12.6141 46.5038C12.8933 46.364 13.6377 46.8297 13.9641 47.4814C14.336 48.087 13.9641 48.2735 13.7776 48.2735ZM14.7551 45.9448C14.3826 45.8988 13.9641 45.7583 13.6377 45.3398C13.3124 44.9673 13.3124 44.1757 13.8242 44.0825C14.6152 43.9426 15.0804 44.6415 15.3607 45.2465C15.5467 45.8982 14.9883 45.9448 14.7551 45.9448ZM15.4995 42.6386C15.127 42.6386 14.9416 42.4988 14.7551 42.2195C14.4759 42.033 14.3826 41.1954 15.127 41.1954C15.4995 41.1954 16.0585 41.4746 16.1046 41.8937C16.1984 42.3594 15.8259 42.592 15.4995 42.6386ZM16.1984 33.2318C16.7102 33.2318 17.6422 33.7908 17.3619 35.4206C16.9894 37.0038 16.8035 36.4453 16.4776 36.538C16.1984 36.6779 16.3849 35.6537 16.1984 35.4206C15.8259 35.0015 14.9416 33.2318 16.1984 33.2318ZM17.1293 48.5527C16.8035 48.4129 16.3849 48.2269 16.3377 47.7145C16.1984 47.2488 16.7102 47.1095 17.1293 47.2027C17.6417 47.2488 18.0142 47.6679 18.0142 47.9943C18.0142 48.4129 17.4085 48.646 17.1293 48.5527ZM18.0142 45.3398C17.781 45.3859 17.6417 45.5257 17.1293 45.3859C16.6641 45.1999 15.686 44.1757 16.5709 43.6162C16.8501 43.3836 17.9209 43.6628 18.154 44.4544C18.526 45.1066 18.2928 45.1999 18.0142 45.3398ZM18.1069 42.1729C17.967 42.033 18.2462 41.2886 18.9911 41.4746C19.69 41.6145 19.876 42.0796 19.8293 42.4988C19.69 42.9179 19.2243 42.9179 18.8513 42.8712C18.526 42.7785 18.2928 42.3128 18.1069 42.1729ZM20.9001 50.2752C20.6676 50.4151 20.1552 50.555 19.4569 50.4617C18.8513 50.4151 18.7119 50.2286 18.9445 49.8567C19.2243 49.5303 19.4102 49.4376 19.9692 49.2511C20.5277 49.0185 21.1799 49.2971 21.3198 49.5303C21.4586 49.7168 21.1794 50.2286 20.9001 50.2752ZM21.8311 47.2482C21.4586 47.4814 20.6676 47.2482 20.4344 46.6898C20.2485 46.0847 20.5743 45.9443 20.8535 45.8044C21.1794 45.7578 21.9704 46.1308 22.1108 46.6432C22.1575 46.969 22.1575 47.0628 21.8311 47.2482ZM22.576 44.5482C22.2502 44.5482 21.0395 44.3611 21.2726 43.7561C21.412 43.1044 22.1108 43.1044 22.4833 43.1971C22.7159 43.1971 23.6934 43.5229 23.4608 44.0819C23.321 44.6875 22.9019 44.5016 22.576 44.5482ZM33.2829 55.5376C33.2829 55.8629 33.0969 56.0961 32.8177 56.0961C32.4919 56.0961 31.561 55.8629 31.0952 56.236C30.6295 56.5612 30.3503 57.1674 30.3969 57.5871C30.4902 57.9124 30.4902 58.4253 30.2576 58.5641C30.0716 58.7506 29.1868 58.4253 28.8143 58.4708C28.4884 58.4708 27.3244 58.7506 27.0452 59.3568C26.7193 59.9152 26.9525 60.3337 26.766 60.4747C26.58 60.7068 26.3002 60.8 26.021 60.8C25.7418 60.8933 24.4845 60.7068 24.2985 60.8933C24.0193 61.0798 23.321 61.918 23.1344 61.6382C22.9019 61.3596 22.576 61.4984 23.1811 60.4747C23.4603 60.0085 24.2052 59.4966 24.2985 59.4966C24.3451 59.4966 25.276 59.5888 25.4626 59.45C25.6485 59.2635 26.2075 58.1455 26.4407 57.9124C27.3716 57.1674 27.3249 57.4472 27.6042 57.3062C27.8839 57.2607 28.8148 57.4472 28.9075 57.2607C29.0474 56.9809 29.6059 55.9562 30.0716 55.5376C30.6767 54.9781 31.6548 54.8848 31.7941 54.7916C31.8402 54.6528 32.0733 54.2798 32.2132 54C32.3992 53.7208 33.2374 53.0225 33.7958 53.1623C34.075 53.255 33.0975 54.5595 33.0975 54.8382C33.0037 55.1185 33.2829 55.1652 33.2829 55.5376ZM33.9812 51.5797C33.2829 51.7196 32.5379 51.673 32.4913 51.3005C32.3981 51.0207 32.6312 50.6016 33.0964 50.4157C33.5155 50.2292 33.934 50.369 34.2599 50.369C34.5391 50.369 35.238 50.369 35.1447 50.6016C35.0986 50.8342 34.6795 51.4398 33.9812 51.5797ZM34.9593 48.4129C34.1677 48.5061 33.4233 48.2735 33.516 47.9477C33.6554 47.5752 34.1211 47.2488 34.8194 47.2488C35.5178 47.2027 35.9835 47.3887 35.9835 47.7145C35.9835 47.9943 35.7037 48.3668 34.9593 48.4129ZM36.5419 44.6415C36.4026 45.1999 36.1228 45.3398 35.611 45.3859C35.0986 45.3859 34.0745 45.2465 34.0745 44.4549C34.0745 44.0825 35.1453 43.896 35.3779 43.896C35.611 43.8027 36.5886 44.0825 36.5419 44.6415ZM37.2869 41.6605C37.1942 42.0797 36.5885 42.4521 36.1228 42.3128C35.611 42.1729 34.9593 42.0797 35.0059 41.6145C35.0059 41.3347 35.4245 40.9161 36.1694 41.0088C36.961 41.0088 37.3335 41.3347 37.2869 41.6605ZM39.7538 50.6943C39.5678 50.8808 39.3347 51.3927 38.7762 51.5325C38.2644 51.5792 37.6122 51.8118 37.3329 51.1601C37.1936 50.8342 37.4262 50.555 37.8448 50.2752C38.1706 50.0893 39.288 50.0893 39.288 50.0893C39.288 50.0893 39.4274 49.7168 39.7066 49.9494C39.9864 50.1359 39.9864 50.4617 39.7538 50.6943ZM41.0572 48.2269C40.5914 48.2269 39.474 48.273 39.4274 47.7145C39.288 47.4819 40.033 47.2027 40.4982 47.0628C41.0566 46.9229 41.4291 46.9229 41.6156 46.9696C41.8016 47.0628 42.3139 47.2488 42.3139 47.4819C42.3145 47.7145 41.4768 48.1336 41.0572 48.2269ZM41.6628 38.9139C41.4768 38.4476 41.4302 38.0285 41.6161 37.8425C41.942 37.6094 43.0594 38.0285 43.2454 38.5408C43.5252 39.0066 43.5252 39.5656 43.0594 39.7055C42.5937 39.7515 41.8021 39.333 41.6628 38.9139ZM43.3381 41.6145C43.2448 41.1954 44.083 40.8695 44.642 40.9161C45.1072 41.0088 45.946 41.4746 45.8055 41.9403C45.6201 42.4521 45.5269 42.592 45.1072 42.592C44.6881 42.592 43.3847 42.3128 43.3381 41.6145ZM43.7572 44.9201C43.6639 44.5482 44.5027 44.3611 44.828 44.3611C45.1072 44.3611 46.3651 44.5482 45.9926 45.06C45.7595 45.5257 45.2471 45.7583 44.828 45.7583C44.5027 45.7583 43.8971 45.2465 43.7572 44.9201ZM46.2713 48.832C45.8055 49.1578 45.4797 49.1578 44.9212 49.1578C44.4094 49.1578 44.3156 48.832 44.3156 48.4129C44.3156 48.087 44.828 47.8544 45.0611 47.8078C45.3404 47.7145 45.6662 47.8078 45.946 47.7145C46.1319 47.6679 46.1319 47.6679 46.4112 47.5752C46.6443 47.5286 46.7836 47.4819 46.8303 47.8544C46.9235 48.2269 46.7831 48.5527 46.2713 48.832ZM47.2022 39.4262C46.969 39.5656 46.969 39.7055 46.5039 39.6122C45.9454 39.5656 45.6656 38.7274 45.5263 38.6802C45.3398 38.5875 44.9207 38.1217 45.1067 37.8892C45.3398 37.7026 46.3645 37.7026 46.8297 38.1217C47.3887 38.5875 47.3887 39.2858 47.2022 39.4262ZM48.2263 41.3347C48.3662 41.1954 48.6921 41.0088 49.1112 41.0088C49.5297 41.0088 50.0887 41.2886 50.2752 41.5678C50.4151 41.8937 50.4151 42.1729 50.1354 42.4521C49.9488 42.6386 48.6921 42.3128 48.5056 42.0796C48.2263 41.8004 48.1336 41.5678 48.2263 41.3347ZM48.5522 45.5257C48.4134 45.6656 48.3662 45.1999 48.5522 44.9673C48.832 44.7808 49.437 44.4549 49.8095 44.4549C50.1354 44.4549 50.6938 44.5482 50.6016 44.8274C50.5545 45.1066 50.4612 45.805 49.7168 45.805C48.9713 45.8982 48.6921 45.4791 48.5522 45.5257ZM49.9955 48.9718C49.3904 49.0185 48.9713 48.9252 48.8786 48.4129C48.832 47.9477 49.2977 47.8078 49.3904 47.8078C49.437 47.8078 49.9488 47.7145 50.0887 47.6679C50.4151 47.6679 50.973 47.2488 51.2528 47.6679C51.3916 47.9477 50.6011 48.832 49.9955 48.9718ZM51.9972 39.5656C51.9039 39.7521 51.718 40.3105 51.0191 40.1246C50.3213 39.8914 49.9949 39.5656 49.809 39.2864C49.6696 39.0071 49.1567 38.588 49.5764 38.1689C49.809 37.983 50.8798 38.4015 51.3916 38.774C51.8112 39.1925 52.0438 39.2858 51.9972 39.5656ZM52.4629 41.5678C52.6028 41.2886 53.1612 41.1487 53.5809 41.1487C53.9995 41.1954 54.5579 41.3347 54.65 41.8004C54.7444 42.2195 54.65 42.3594 54.5113 42.592C54.2792 42.7785 53.4405 42.4988 53.1146 42.3594C52.7421 42.2195 52.323 41.7538 52.4629 41.5678ZM52.5562 44.7808C52.5562 44.4549 53.0219 44.5016 53.2545 44.4549C53.3478 44.3617 53.4871 44.2224 53.8596 44.1757C54.1388 44.0825 54.7444 44.0825 54.7444 44.3611C54.8377 44.5482 54.7444 44.9673 53.9994 45.1999C53.1612 45.4791 52.6028 45.1066 52.5562 44.7808ZM55.2562 47.8544C55.2562 47.8544 54.65 48.4129 54.5113 48.646C54.2792 48.7853 53.9062 49.1578 53.3478 48.6926C53.0219 48.3668 53.3478 47.8078 53.5809 47.6679C53.7669 47.4819 55.163 46.6437 55.4427 47.0628C55.6748 47.4814 55.2562 47.8544 55.2562 47.8544ZM56.0928 39.6116C55.8141 40.0308 55.3944 39.9841 54.8837 39.8909C54.4174 39.8442 53.5803 39.2858 53.6264 38.7268C53.7197 38.2616 54.5573 38.401 55.0225 38.5875C55.536 38.7734 56.4192 39.1925 56.0928 39.6116ZM61.6333 46.0387C61.3546 46.0387 60.6563 45.3398 61.7732 45.1999C62.1928 45.1066 62.2394 45.3859 62.2394 45.805C62.2394 46.1314 61.8664 46.0387 61.6333 46.0387ZM62.2394 42.7785C61.7732 42.6386 61.5866 42.4521 61.8664 42.0796C62.1928 41.8004 62.3316 41.8937 62.7501 42.033C63.0765 42.1729 63.1698 42.4521 63.0765 42.7319C63.0299 43.0583 62.7501 42.9184 62.2394 42.7785ZM64.8923 52.837C64.2395 52.6972 63.6355 51.9056 63.3091 51.4398C63.0294 50.8814 62.9372 49.8567 63.1692 49.3915C63.3558 48.8325 63.6355 48.7859 63.9142 48.9724C64.2395 49.1584 64.0541 50.5561 64.2395 50.6022C64.4726 50.7421 64.6125 51.7207 65.2176 51.8601C65.4041 51.8601 65.6372 52.3258 65.6372 52.3258C65.6372 52.3258 65.4041 52.9764 64.8923 52.837Z" fill="white"/>
<path d="M15.7332 94.7681H17.9764C18.2749 94.771 18.5656 94.6728 18.8011 94.4893C19.0366 94.3058 19.203 94.048 19.2731 93.7578L19.7561 91.8504C19.8321 91.5479 20.093 91.3453 20.4044 91.3453H24.6072C24.9186 91.3453 25.1795 91.5479 25.2555 91.8504L25.7379 93.7578C25.8081 94.0479 25.9745 94.3057 26.21 94.4892C26.4455 94.6726 26.7361 94.7709 27.0346 94.7681H29.2778C29.4863 94.768 29.6919 94.7192 29.8782 94.6256C30.0645 94.532 30.2264 94.3961 30.3508 94.2288C30.4753 94.0616 30.5589 93.8675 30.5951 93.6622C30.6312 93.4568 30.6189 93.2459 30.559 93.0461L25.8495 77.3028C25.7698 77.0254 25.6013 76.7819 25.3699 76.6095C25.1384 76.4371 24.8568 76.3455 24.5683 76.3485H20.4433C19.8416 76.3485 19.3342 76.726 19.1621 77.3028L14.4526 93.0461C14.3926 93.2458 14.3802 93.4568 14.4162 93.6621C14.4523 93.8675 14.5359 94.0616 14.6603 94.2289C14.7847 94.3962 14.9465 94.532 15.1328 94.6257C15.3191 94.7193 15.5247 94.7681 15.7332 94.7681ZM23.7767 87.6017H21.2343C21.1866 87.601 21.1396 87.5895 21.0969 87.5683C21.0542 87.547 21.0168 87.5164 20.9875 87.4787C20.9582 87.441 20.9377 87.3972 20.9276 87.3506C20.9175 87.304 20.918 87.2556 20.929 87.2092L22.3645 81.531C22.3978 81.4011 22.6127 81.4011 22.6454 81.531L24.0815 87.2092C24.0925 87.2556 24.093 87.3039 24.0829 87.3505C24.0728 87.3971 24.0524 87.4408 24.0232 87.4785C23.9939 87.5162 23.9566 87.5468 23.9139 87.5681C23.8713 87.5894 23.8244 87.6009 23.7767 87.6017ZM54.3014 95.2116C59.1481 95.2116 63.076 90.9173 63.076 85.6188C63.076 80.3214 59.1481 76.0271 54.3014 76.0271C49.4554 76.0271 45.5263 80.3214 45.5263 85.6188C45.5269 90.9173 49.4554 95.2116 54.3014 95.2116ZM54.3014 90.9345C51.9611 90.9345 50.7088 88.5548 50.7088 85.6188C50.7088 82.6829 51.8245 80.3031 54.3014 80.3031C56.7778 80.3031 57.8946 82.6829 57.8946 85.6188C57.8946 88.5548 56.6418 90.9345 54.3014 90.9345ZM72.8353 89.5046C72.8353 90.6059 71.9699 91.2065 70.7936 91.2065C69.3093 91.2065 68.3489 90.3195 67.4597 89.4091C66.9889 88.9278 66.2007 88.9439 65.7033 89.3974L64.6009 90.4016C64.1707 90.7941 63.8465 91.4524 64.2128 91.9043C65.4036 93.3775 67.1804 95.0506 71.4659 95.0506C75.2694 95.0506 77.6459 92.3989 77.6459 89.5406C77.6459 87.2086 76.6605 85.666 73.875 84.2422L70.9912 82.8727C69.765 82.5463 69.2427 82.1028 69.2427 81.3018C69.2427 80.4508 69.8388 79.9301 70.8158 79.9301C71.9649 79.9301 72.9341 80.6434 73.8073 81.3439C74.3191 81.7547 75.0724 81.6581 75.5181 81.1757L76.6705 79.9279C77.0708 79.4943 77.219 78.7733 76.7954 78.3614C75.4066 77.0125 73.3305 75.9999 70.49 75.9999C66.471 75.9999 64.1018 78.4924 64.1018 81.5216C64.1018 84.0751 65.343 85.4018 68.0397 86.6313L71.3532 88.0485C72.4023 88.3738 72.8353 88.7779 72.8353 89.5046ZM30.5568 85.6199C30.5568 90.9173 34.4858 95.2116 39.3319 95.2116C41.645 95.2116 43.7489 94.2335 45.3159 92.6342C45.5918 92.3534 45.5852 91.8982 45.3193 91.6073L43.5568 89.6827C43.2043 89.2992 42.6625 89.4096 42.2867 89.7705C41.4291 90.5965 40.7502 90.9351 39.3313 90.9351C36.8545 90.9351 35.7387 88.5553 35.7387 85.6194V85.6183C35.7387 82.6823 36.8545 80.3026 39.3313 80.3026C40.7502 80.3026 41.4291 80.6406 42.2867 81.4672C42.6625 81.828 43.2043 81.939 43.5568 81.5549L45.3193 79.6303C45.5852 79.3411 45.5918 78.8843 45.3159 78.6034C43.7489 77.0041 41.6445 76.026 39.3319 76.026C34.4858 76.026 30.5568 80.3203 30.5568 85.6177V85.6199ZM102.905 83.3812H99.6364C99.5485 83.3813 99.4615 83.364 99.3803 83.3304C99.2991 83.2968 99.2254 83.2476 99.1632 83.1854C99.1011 83.1233 99.0518 83.0495 99.0182 82.9683C98.9847 82.8872 98.9674 82.8001 98.9675 82.7123V81.3723C98.9675 81.0026 99.2667 80.7034 99.6364 80.7034H104.454C104.629 80.7034 104.803 80.6689 104.966 80.6017C105.128 80.5345 105.275 80.4359 105.4 80.3117C105.524 80.1874 105.622 80.0399 105.69 79.8776C105.757 79.7152 105.791 79.5413 105.791 79.3655V77.6875C105.791 77.5118 105.757 77.3378 105.69 77.1754C105.622 77.0131 105.524 76.8656 105.4 76.7413C105.275 76.6171 105.128 76.5185 104.966 76.4513C104.803 76.3841 104.629 76.3496 104.454 76.3497H95.2238C95.0482 76.3497 94.8743 76.3843 94.7121 76.4515C94.5498 76.5188 94.4024 76.6173 94.2783 76.7416C94.1541 76.8658 94.0557 77.0133 93.9886 77.1756C93.9215 77.3379 93.887 77.5118 93.8871 77.6875V93.4308C93.8871 93.7854 94.0279 94.1255 94.2786 94.3764C94.5292 94.6273 94.8692 94.7683 95.2238 94.7686H104.454C104.808 94.7686 105.149 94.6277 105.4 94.3768C105.65 94.1259 105.791 93.7856 105.791 93.4308V91.7516C105.791 91.3968 105.65 91.0565 105.4 90.8057C105.149 90.5548 104.808 90.4138 104.454 90.4138H99.6364C99.5485 90.4139 99.4615 90.3966 99.3803 90.3631C99.2991 90.3295 99.2254 90.2802 99.1632 90.2181C99.1011 90.1559 99.0518 90.0822 99.0182 90.001C98.9847 89.9198 98.9674 89.8328 98.9675 89.7449V88.4049C98.9675 88.0363 99.2667 87.736 99.6364 87.736H102.905C103.081 87.7361 103.255 87.7015 103.417 87.6343C103.58 87.5671 103.727 87.4686 103.852 87.3443C103.976 87.2201 104.074 87.0726 104.142 86.9102C104.209 86.7479 104.243 86.5739 104.243 86.3982V84.7201C104.243 84.5443 104.209 84.3702 104.142 84.2078C104.075 84.0454 103.976 83.8978 103.852 83.7734C103.728 83.6491 103.58 83.5504 103.418 83.4831C103.255 83.4158 103.081 83.3812 102.905 83.3812ZM84.1084 94.7681H86.5142C87.2525 94.7681 87.852 94.1686 87.852 93.4303V81.3717C87.852 81.002 88.1501 80.7028 88.5198 80.7028H91.2215C91.5763 80.7028 91.9166 80.5619 92.1675 80.311C92.4184 80.0601 92.5593 79.7198 92.5593 79.365V77.6869C92.5593 77.3321 92.4184 76.9918 92.1675 76.7409C91.9166 76.4901 91.5763 76.3491 91.2215 76.3491H79.4005C79.2248 76.349 79.0508 76.3836 78.8885 76.4508C78.7262 76.518 78.5787 76.6165 78.4544 76.7408C78.3302 76.865 78.2316 77.0125 78.1644 77.1749C78.0972 77.3372 78.0627 77.5112 78.0627 77.6869V79.365C78.0627 79.5407 78.0972 79.7147 78.1644 79.877C78.2316 80.0394 78.3302 80.1869 78.4544 80.3111C78.5787 80.4354 78.7262 80.5339 78.8885 80.6011C79.0508 80.6683 79.2248 80.7029 79.4005 80.7028H82.1011C82.4708 80.7028 82.77 81.002 82.77 81.3717V93.4303C82.7705 93.785 82.9116 94.1251 83.1626 94.3759C83.4135 94.6268 83.7536 94.7678 84.1084 94.7681ZM12.1384 90.4022H8.54516C8.36776 90.4022 8.19762 90.3317 8.07218 90.2062C7.94673 90.0808 7.87626 89.9107 7.87626 89.7333V77.6869C7.87626 77.3322 7.73539 76.992 7.48462 76.7411C7.23385 76.4903 6.89372 76.3493 6.53901 76.3491H4.13318C3.77847 76.3493 3.43833 76.4903 3.18757 76.7411C2.9368 76.992 2.79593 77.3322 2.79593 77.6869V93.4292C2.79593 94.1686 3.39544 94.767 4.13484 94.7658L11.082 94.7592L12.14 94.757C12.4943 94.7567 12.8341 94.6157 13.0845 94.3651C13.3349 94.1144 13.4756 93.7746 13.4756 93.4203V91.74C13.4757 91.5643 13.4412 91.3904 13.374 91.2281C13.3068 91.0658 13.2083 90.9183 13.0841 90.794C12.96 90.6698 12.8125 90.5713 12.6502 90.504C12.488 90.4368 12.314 90.4022 12.1384 90.4022Z" stroke="black" stroke-width="0.89647" stroke-miterlimit="2.613"/>
<path fill-rule="evenodd" clip-rule="evenodd" d="M54.3014 95.2116C59.1481 95.2116 63.076 90.9173 63.076 85.6188C63.076 80.3214 59.1481 76.0271 54.3014 76.0271C49.4554 76.0271 45.5263 80.3214 45.5263 85.6188C45.5269 90.9173 49.4554 95.2116 54.3014 95.2116ZM54.3014 90.9345C51.9611 90.9345 50.7088 88.5548 50.7088 85.6188C50.7088 82.6829 51.8245 80.3031 54.3014 80.3031C56.7778 80.3031 57.8946 82.6829 57.8946 85.6188C57.8946 88.5548 56.6418 90.9345 54.3014 90.9345ZM15.7332 94.7681H17.9764C18.2749 94.771 18.5656 94.6728 18.8011 94.4893C19.0366 94.3058 19.203 94.048 19.2731 93.7578L19.7561 91.8504C19.8321 91.5479 20.093 91.3453 20.4044 91.3453H24.6072C24.9186 91.3453 25.1795 91.5479 25.2555 91.8504L25.7379 93.7578C25.8081 94.0479 25.9745 94.3057 26.21 94.4892C26.4455 94.6726 26.7361 94.7709 27.0346 94.7681H29.2778C29.4863 94.768 29.6919 94.7192 29.8782 94.6256C30.0645 94.532 30.2264 94.3961 30.3508 94.2288C30.4753 94.0616 30.5589 93.8675 30.5951 93.6622C30.6312 93.4568 30.6189 93.2459 30.559 93.0461L25.8495 77.3028C25.7698 77.0254 25.6013 76.7819 25.3699 76.6095C25.1384 76.4371 24.8568 76.3455 24.5683 76.3485H20.4433C19.8416 76.3485 19.3342 76.726 19.1621 77.3028L14.4526 93.0461C14.3926 93.2458 14.3802 93.4568 14.4162 93.6621C14.4523 93.8675 14.5359 94.0616 14.6603 94.2289C14.7847 94.3962 14.9465 94.532 15.1328 94.6257C15.3191 94.7193 15.5247 94.7681 15.7332 94.7681ZM23.7767 87.6017H21.2343C21.1866 87.601 21.1396 87.5895 21.0969 87.5683C21.0542 87.547 21.0168 87.5164 20.9875 87.4787C20.9582 87.441 20.9377 87.3972 20.9276 87.3506C20.9175 87.304 20.918 87.2556 20.929 87.2092L22.3645 81.531C22.3978 81.4011 22.6127 81.4011 22.6454 81.531L24.0815 87.2092C24.0925 87.2556 24.093 87.3039 24.0829 87.3505C24.0728 87.3971 24.0524 87.4408 24.0232 87.4785C23.9939 87.5162 23.9566 87.5468 23.9139 87.5681C23.8713 87.5894 23.8244 87.6009 23.7767 87.6017ZM30.5568 85.6199C30.5568 90.9173 34.4858 95.2116 39.3319 95.2116C41.645 95.2116 43.7489 94.2335 45.3159 92.6342C45.5918 92.3534 45.5852 91.8982 45.3193 91.6073L43.5568 89.6827C43.2043 89.2992 42.6625 89.4096 42.2867 89.7705C41.4291 90.5965 40.7502 90.9351 39.3313 90.9351C36.8545 90.9351 35.7387 88.5553 35.7387 85.6194V85.6183C35.7387 82.6823 36.8545 80.3026 39.3313 80.3026C40.7502 80.3026 41.4291 80.6406 42.2867 81.4672C42.6625 81.828 43.2043 81.939 43.5568 81.5549L45.3193 79.6303C45.5852 79.3411 45.5918 78.8843 45.3159 78.6034C43.7489 77.0041 41.6445 76.026 39.3319 76.026C34.4858 76.026 30.5568 80.3203 30.5568 85.6177V85.6199ZM72.8353 89.5046C72.8353 90.6059 71.9699 91.2065 70.7936 91.2065C69.3093 91.2065 68.3489 90.3195 67.4597 89.4091C66.9889 88.9278 66.2007 88.9439 65.7033 89.3974L64.6009 90.4016C64.1707 90.7941 63.8465 91.4524 64.2128 91.9043C65.4036 93.3775 67.1804 95.0506 71.4659 95.0506C75.2694 95.0506 77.6459 92.3989 77.6459 89.5406C77.6459 87.2086 76.6605 85.666 73.875 84.2422L70.9912 82.8727C69.765 82.5463 69.2427 82.1028 69.2427 81.3018C69.2427 80.4508 69.8388 79.9301 70.8158 79.9301C71.9649 79.9301 72.9341 80.6434 73.8073 81.3439C74.3191 81.7547 75.0724 81.6581 75.5181 81.1757L76.6705 79.9279C77.0708 79.4943 77.219 78.7733 76.7954 78.3614C75.4066 77.0125 73.3305 75.9999 70.49 75.9999C66.471 75.9999 64.1018 78.4924 64.1018 81.5216C64.1018 84.0751 65.343 85.4018 68.0397 86.6313L71.3532 88.0485C72.4023 88.3738 72.8353 88.7779 72.8353 89.5046ZM102.905 83.3812H99.6364C99.5485 83.3813 99.4615 83.364 99.3803 83.3304C99.2991 83.2968 99.2254 83.2476 99.1632 83.1854C99.1011 83.1233 99.0518 83.0495 99.0182 82.9683C98.9847 82.8872 98.9674 82.8001 98.9675 82.7123V81.3723C98.9675 81.0026 99.2667 80.7034 99.6364 80.7034H104.454C104.629 80.7034 104.803 80.6689 104.966 80.6017C105.128 80.5345 105.275 80.4359 105.4 80.3117C105.524 80.1874 105.622 80.0399 105.69 79.8776C105.757 79.7152 105.791 79.5413 105.791 79.3655V77.6875C105.791 77.5118 105.757 77.3378 105.69 77.1754C105.622 77.0131 105.524 76.8656 105.4 76.7413C105.275 76.6171 105.128 76.5185 104.966 76.4513C104.803 76.3841 104.629 76.3496 104.454 76.3497H95.2238C95.0482 76.3497 94.8743 76.3843 94.7121 76.4515C94.5498 76.5188 94.4024 76.6173 94.2783 76.7416C94.1541 76.8658 94.0557 77.0133 93.9886 77.1756C93.9215 77.3379 93.887 77.5118 93.8871 77.6875V93.4308C93.8871 93.7854 94.0279 94.1255 94.2786 94.3764C94.5292 94.6273 94.8692 94.7683 95.2238 94.7686H104.454C104.808 94.7686 105.149 94.6277 105.4 94.3768C105.65 94.1259 105.791 93.7856 105.791 93.4308V91.7516C105.791 91.3968 105.65 91.0565 105.4 90.8057C105.149 90.5548 104.808 90.4138 104.454 90.4138H99.6364C99.5485 90.4139 99.4615 90.3966 99.3803 90.3631C99.2991 90.3295 99.2254 90.2802 99.1632 90.2181C99.1011 90.1559 99.0518 90.0822 99.0182 90.001C98.9847 89.9198 98.9674 89.8328 98.9675 89.7449V88.4049C98.9675 88.0363 99.2667 87.736 99.6364 87.736H102.905C103.081 87.7361 103.255 87.7015 103.417 87.6343C103.58 87.5671 103.727 87.4686 103.852 87.3443C103.976 87.2201 104.074 87.0726 104.142 86.9102C104.209 86.7479 104.243 86.5739 104.243 86.3982V84.7201C104.243 84.5443 104.209 84.3702 104.142 84.2078C104.075 84.0454 103.976 83.8978 103.852 83.7734C103.728 83.6491 103.58 83.5504 103.418 83.4831C103.255 83.4158 103.081 83.3812 102.905 83.3812ZM84.1084 94.7681H86.5142C87.2525 94.7681 87.852 94.1686 87.852 93.4303V81.3717C87.852 81.002 88.1501 80.7028 88.5198 80.7028H91.2215C91.5763 80.7028 91.9166 80.5619 92.1675 80.311C92.4184 80.0601 92.5593 79.7198 92.5593 79.365V77.6869C92.5593 77.3321 92.4184 76.9918 92.1675 76.7409C91.9166 76.4901 91.5763 76.3491 91.2215 76.3491H79.4005C79.2248 76.349 79.0508 76.3836 78.8885 76.4508C78.7262 76.518 78.5787 76.6165 78.4544 76.7408C78.3302 76.865 78.2316 77.0125 78.1644 77.1749C78.0972 77.3372 78.0627 77.5112 78.0627 77.6869V79.365C78.0627 79.5407 78.0972 79.7147 78.1644 79.877C78.2316 80.0394 78.3302 80.1869 78.4544 80.3111C78.5787 80.4354 78.7262 80.5339 78.8885 80.6011C79.0508 80.6683 79.2248 80.7029 79.4005 80.7028H82.1011C82.4708 80.7028 82.77 81.002 82.77 81.3717V93.4303C82.7705 93.785 82.9116 94.1251 83.1626 94.3759C83.4135 94.6268 83.7536 94.7678 84.1084 94.7681ZM12.1384 90.4022H8.54516C8.36776 90.4022 8.19762 90.3317 8.07218 90.2062C7.94673 90.0808 7.87626 89.9107 7.87626 89.7333V77.6869C7.87626 77.3322 7.73539 76.992 7.48462 76.7411C7.23385 76.4903 6.89372 76.3493 6.53901 76.3491H4.13318C3.77847 76.3493 3.43833 76.4903 3.18757 76.7411C2.9368 76.992 2.79593 77.3322 2.79593 77.6869V93.4292C2.79593 94.1686 3.39544 94.767 4.13484 94.7658L11.082 94.7592L12.14 94.757C12.4943 94.7567 12.8341 94.6157 13.0845 94.3651C13.3349 94.1144 13.4756 93.7746 13.4756 93.4203V91.74C13.4757 91.5643 13.4412 91.3904 13.374 91.2281C13.3068 91.0658 13.2083 90.9183 13.0841 90.794C12.96 90.6698 12.8125 90.5713 12.6502 90.504C12.488 90.4368 12.314 90.4022 12.1384 90.4022Z" fill="white"/>
</svg>
