<svg width="118" height="126" viewBox="0 0 118 126" fill="none" xmlns="http://www.w3.org/2000/svg">
<path fill-rule="evenodd" clip-rule="evenodd" d="M20.921 70.1787C20.0101 70.1787 19.2969 70.8592 19.2969 71.8521C19.2969 72.8457 20.0138 73.5222 20.921 73.5222C21.8277 73.5222 22.5451 72.8411 22.5451 71.8521C22.5451 70.8592 21.8313 70.1787 20.921 70.1787ZM20.921 73.0437C20.2715 73.0437 19.7897 72.5371 19.7897 71.8521C19.7897 71.1677 20.2679 70.6572 20.921 70.6572C21.5663 70.6572 22.0517 71.1755 22.0517 71.8521C22.0517 72.5247 21.562 73.0437 20.921 73.0437ZM36.7243 64.3257H28.8181L29.7167 49.6519L24.5825 64.3257H17.2407L28.8897 31.1588H36.7016L35.7999 46.0338L41.0315 31.1588H48.3739L36.7243 64.3257ZM37.6781 64.3257L49.3265 31.1588H56.6683L45.0198 64.3257H37.6781Z" fill="white"/>
<path fill-rule="evenodd" clip-rule="evenodd" d="M16.394 52.8935C6.1346 65.7585 -3.54324 82.8763 5.00514 90.759C13.2885 98.3979 23.6421 93.8751 30.7017 90.8597C37.7613 87.8443 115.791 51.662 115.791 51.662C116.544 51.26 116.403 50.7573 115.461 51.0083C115.082 51.1096 30.5138 75.582 30.5138 75.582C19.7824 78.7987 7.54627 71.788 16.394 52.8935Z" fill="white"/>
<path fill-rule="evenodd" clip-rule="evenodd" d="M21.1977 71.9697C21.4255 71.958 21.6036 71.8325 21.6036 71.4958C21.6036 71.0618 21.3379 70.9526 20.8941 70.9526H20.2562V72.7522H20.6817V71.9861H20.7533L21.1408 72.7522H21.6299L21.1977 71.9697ZM20.9247 71.6782H20.6823V71.2605H20.8868C21.0123 71.2605 21.1561 71.2762 21.1561 71.4507C21.1561 71.6377 21.0729 71.6782 20.9247 71.6782ZM94.7234 31.0575C93.8125 31.0575 93.0993 31.7386 93.0993 32.7309C93.0993 33.7238 93.8168 34.4004 94.7234 34.4004C95.63 34.4004 96.3475 33.7192 96.3475 32.7309C96.3481 31.7386 95.6349 31.0575 94.7234 31.0575ZM94.7234 33.9232C94.0739 33.9232 93.5921 33.4166 93.5921 32.7315C93.5921 32.0471 94.0702 31.5366 94.7234 31.5366C95.3686 31.5366 95.8547 32.055 95.8547 32.7315C95.8547 33.4042 95.3649 33.9232 94.7234 33.9232Z" fill="white"/>
<path fill-rule="evenodd" clip-rule="evenodd" d="M95.0007 32.8485C95.2284 32.8368 95.4071 32.7113 95.4071 32.3746C95.4071 31.9406 95.1408 31.8314 94.6976 31.8314H94.0597V33.6303H94.4846V32.8649H94.5568L94.9437 33.6303H95.4335L95.0007 32.8485ZM94.727 32.557H94.4846V32.1393H94.6897C94.8145 32.1393 94.959 32.1556 94.959 32.3302C94.959 32.5165 94.8752 32.557 94.727 32.557ZM89.8859 36.6869L91.859 31.1588H69.4571L61.7652 41.109L65.3164 31.1588H57.8803L46.325 64.3257H53.6667L58.6002 50.456L58.9382 64.3257L81.4655 64.2734L83.6099 57.8935H75.045L77.8592 49.8533H84.9182L87.0902 43.6721H80.0312L82.4511 36.6869H89.8859ZM66.2218 62.1143L65.751 44.8278L76.8516 31.8138L66.2218 62.1143Z" fill="white"/>
</svg>
