<svg width="172" height="82" viewBox="0 0 172 82" fill="none" xmlns="http://www.w3.org/2000/svg">
<path fill-rule="evenodd" clip-rule="evenodd" d="M138.605 61.4653C136.094 59.7075 132.831 58.7017 128.811 58.7017C125.045 58.7017 121.781 59.7075 119.021 61.4653C116.258 63.7223 114.751 66.4877 114.751 70.0015C114.751 73.5171 116.258 76.0278 119.021 78.2867C121.781 80.0445 125.046 81.0502 128.811 81.0502C132.831 81.0502 136.094 80.0445 138.605 78.2867C141.618 76.0278 142.874 73.5171 142.874 70.0015C142.873 66.4877 141.618 63.7223 138.605 61.4653ZM128.81 64.979C130.569 64.979 131.824 65.4819 133.08 66.2339C134.086 67.2397 134.838 68.2418 134.838 69.4986C135.087 73.0142 133.08 74.772 128.81 74.772C127.052 74.772 125.547 74.2691 124.292 73.2633C123.286 72.2594 122.785 71.0045 122.785 69.4976C123.034 68.2409 123.539 67.2388 124.541 66.233C125.797 65.4819 127.052 64.979 128.81 64.979ZM170.994 59.4537H161.955L153.168 67.7426V52.6772H144.881V80.5474H153.168V69.2476L161.452 80.5474H172L161.203 68.4946L170.994 59.4537ZM70.3066 59.2046C66.0372 59.2046 62.7744 60.2103 60.2627 61.9645C57.752 63.976 56.4961 66.4877 56.2451 70.0015C56.2451 76.7798 61.0157 80.2973 70.8095 80.5474H83.1132V74.7729H71.3106C68.0469 74.5201 65.7871 73.7671 65.0332 72.2612C64.0293 70.7544 64.0293 69.2485 64.7822 67.7435C65.7871 65.9857 67.795 64.9799 70.3066 64.9799H75.3281L69.8038 72.2612H77.5879L83.1123 65.2318V59.2055L70.3066 59.2046ZM94.1602 52.6772H85.6231V80.2973H101.19C104.707 80.2973 107.467 79.2915 109.477 77.2827C111.737 75.5249 112.741 73.0142 112.992 70.0015C112.992 63.9751 110.482 60.7095 105.46 59.7074L98.4306 59.4546L94.6631 64.9799H97.9277C102.95 64.9799 105.209 66.4886 105.209 70.0024C104.958 73.0151 102.699 74.7729 98.4306 74.7729H94.1602V52.6772ZM0 52.6772V80.2973H8.53712V58.9527H16.5723C18.3292 59.4537 19.585 60.4595 19.3349 62.4664C19.3349 63.7213 18.832 64.7271 17.8281 64.9781L9.79295 65.7301L18.5811 80.5455H28.876L20.3389 68.9966C25.6123 68.7438 28.123 65.9839 27.6201 60.9615C27.6201 58.1979 26.3643 56.1891 24.1054 54.6841C22.0957 53.4292 19.585 52.6762 16.5723 52.6762L0 52.6772Z" fill="black"/>
<path fill-rule="evenodd" clip-rule="evenodd" d="M42.1836 59.2046C37.9151 59.2046 34.6513 60.2103 32.1397 61.9645C29.6289 63.7223 28.3731 66.4877 28.3731 69.7505C28.123 76.7799 32.8935 80.2982 42.4346 80.2982H54.9893V74.7729H43.1894C39.9238 74.5201 37.665 73.7671 36.912 72.2612C35.9072 70.7544 35.9072 69.2485 36.6611 67.7435C37.665 65.9857 39.6729 64.98 42.1845 64.98H47.206L41.6826 72.2612H49.4667L54.9902 64.98V59.2055L42.1836 59.2046ZM86.8789 8.48292L99.9346 16.5181L120.775 8.73482C127.808 6.47505 136.847 3.96338 147.643 0.949738C121.028 3.21043 100.94 5.46928 86.8789 8.48292ZM76.8359 17.021L65.2851 14.0073C58.7568 15.766 52.4795 18.5269 46.705 22.0434C40.9287 25.5572 36.4101 29.5766 33.3964 33.8451H52.9823C54.4892 31.5844 56.9999 29.0728 60.2636 26.562C65.0332 22.5454 70.5585 19.5317 76.8359 17.021ZM90.6464 21.7906L80.8535 18.5259C78.5928 19.5317 75.832 20.7866 72.5664 23.0455C68.0469 26.0591 64.0293 29.8257 60.5146 33.8451H78.8438C81.3545 29.8257 85.3721 25.8091 90.6464 21.7906ZM68.2988 0.949738H29.1279L68.2979 11.4966C85.6231 16.7681 101.692 22.7963 116.51 29.0728L68.2988 0.949738Z" fill="black"/>
</svg>
