<svg width="129" height="86" viewBox="0 0 129 86" fill="none" xmlns="http://www.w3.org/2000/svg">
<path d="M9.65581 85.4934C9.60141 85.4871 9.41699 85.468 9.246 85.4507C7.68515 85.2935 6.01895 84.6533 4.70918 83.7076C2.74544 82.2896 1.36162 80.2249 0.784411 77.8516C0.477677 76.5905 0.416714 75.1776 0.612885 73.8779C1.13888 70.3929 3.4349 67.4079 6.61996 66.0681C7.41484 65.7337 8.20371 65.5223 9.13295 65.3945C9.64807 65.3238 10.9026 65.3234 11.4222 65.3939C12.5243 65.5435 13.4583 65.8222 14.4181 66.2879C15.4741 66.8004 16.2049 67.328 17.0895 68.2168C17.8628 68.9937 18.3403 69.6404 18.8939 70.6605L19.0117 70.8775L18.5943 71.1871C18.0194 71.6137 16.6706 72.5789 16.2314 72.8781L15.8685 73.1254L15.7192 72.8C15.5347 72.3977 15.4033 72.1593 15.1905 71.8406C14.3404 70.5672 12.9847 69.6576 11.507 69.3693C10.7251 69.2167 9.76247 69.2337 8.99164 69.4136C8.1822 69.6027 7.3032 70.0267 6.63171 70.552C6.36104 70.7638 5.86289 71.2593 5.64371 71.5348C4.46106 73.0212 4.02545 74.9148 4.43105 76.8062C4.57148 77.461 4.93497 78.3165 5.31417 78.8848C6.31777 80.3887 7.85611 81.3522 9.59855 81.5682C9.90659 81.6064 10.6486 81.6064 10.9566 81.5682C12.4997 81.3769 13.9256 80.5728 14.8999 79.3444C15.1868 78.9826 15.3867 78.6694 15.6148 78.2246C15.7147 78.0298 15.8048 77.8703 15.815 77.8703C15.8252 77.8703 16.5357 78.3732 17.3938 78.9878L18.954 80.1053L18.7959 80.4051C18.4678 81.0275 17.9033 81.8099 17.3776 82.3709C16.482 83.3268 15.6096 83.9763 14.4746 84.5325C13.4942 85.0128 12.4554 85.3192 11.3515 85.4536C11.104 85.4838 9.83177 85.5136 9.65581 85.4934ZM22.9958 75.3192V65.5253H26.7829V72.5553H36.6748V65.5253H40.462V85.113H36.6748V76.4955H26.7829V85.113H22.9958V75.3192ZM44.2882 83.3767C44.7104 82.4218 46.658 78.0146 48.6163 73.5829L52.1768 65.5253L54.8335 65.5256L57.4902 65.5259L61.7943 75.199C64.1615 80.5192 66.1227 84.9262 66.1524 84.9925L66.2065 85.113H61.6717L60.7962 83.1714L59.9207 81.2297L54.8532 81.2367L49.7857 81.2436L48.92 83.1783L48.0544 85.113H43.5206L44.2882 83.3767ZM58.319 77.2781C58.303 77.209 54.8624 69.4954 54.8477 69.4956C54.8372 69.4958 51.5696 77.1445 51.5174 77.2911C51.5116 77.3074 52.8182 77.3176 54.9181 77.3176C57.8187 77.3176 58.3267 77.3117 58.319 77.2781ZM69.2616 75.3192V65.5253L71.9254 65.5259L74.5891 65.5265L78.7579 71.399L82.9266 77.2715L82.9337 71.3984L82.9408 65.5253H86.7562V85.1135L85.2253 85.1062L83.6944 85.0988L78.4069 77.7368C75.4988 73.6877 73.1099 70.3743 73.0983 70.3737C73.0866 70.3731 73.0771 73.6892 73.0771 77.7428V85.113H69.2616V75.3192ZM93.6522 75.3192V65.5253H107.303V69.4655H97.4677V73.3774H106.568V77.3176H97.4677V81.2295H108.716V85.113H93.6522V75.3192ZM114.058 75.3192V65.5253H117.873V81.2295H128.5V85.113H114.058V75.3192ZM48.6733 60.5437C44.5968 60.3545 40.0573 59.1131 36.3977 57.1865C33.5883 55.7075 31.3616 54.0525 29.0289 51.7092C27.2018 49.874 25.8539 48.1835 24.713 46.2963L24.2135 45.4701L24.9221 45.0931C26.3028 44.3587 32.5972 41.126 32.6466 41.126C32.6742 41.126 32.9342 41.481 33.2244 41.9149C36.5046 46.8185 41.6363 50.0084 47.6415 50.8766C48.6913 51.0284 51.8482 51.0042 52.9914 50.8356C54.2634 50.648 55.7892 50.3001 56.7584 49.9766C56.8214 49.9556 56.701 49.7593 56.4237 49.4315C54.2772 46.8937 52.3204 43.4105 51.2195 40.1678C49.2282 34.3021 49.0865 28.0057 50.8126 22.0897C51.8844 18.416 53.7291 14.8502 56.0652 11.9362C56.4133 11.5021 56.6981 11.119 56.6981 11.085C56.6981 10.9694 54.8745 10.4825 53.6792 10.2791C51.8326 9.96474 48.9418 9.92576 47.2729 10.1927C44.4648 10.6419 41.6147 11.6967 39.3875 13.111C36.9055 14.6871 34.8358 16.7125 33.1842 19.1815L32.455 20.2717L31.5267 19.783C31.0161 19.5141 29.1196 18.5283 27.3121 17.5923C25.5046 16.6563 24.0201 15.8855 24.0133 15.8795C23.9845 15.8541 25.1161 14.0489 25.5819 13.3772C26.9961 11.3377 29.5073 8.63671 31.3627 7.15956C36.2142 3.29702 41.6076 1.12168 47.6797 0.578411C48.8061 0.47761 51.5991 0.476731 52.6857 0.576796C56.5407 0.931755 59.8452 1.86927 63.2592 3.5764L64.8907 4.39228L65.4373 4.08033C66.32 3.57657 67.8882 2.84973 69.0792 2.39233C72.4208 1.10904 75.7862 0.49819 79.5045 0.500004C82.1011 0.50128 84.2673 0.757167 86.6188 1.3404C91.9314 2.65802 96.462 5.18503 100.365 9.00786C102.482 11.0804 104.14 13.1964 105.479 15.5326L105.682 15.8867L102.379 17.5956C100.563 18.5356 98.6626 19.5224 98.1566 19.7884L97.2366 20.2723L96.5412 19.2202C93.11 14.0288 87.4975 10.6491 81.3542 10.075C79.5355 9.90501 76.8349 10.0615 75.1933 10.432C74.3485 10.6227 72.977 11.0158 72.9773 11.0671C72.9776 11.0939 73.2019 11.3918 73.476 11.7291C76.9965 16.0616 79.1946 21.3428 79.9049 27.1749C80.0744 28.5669 80.097 32.1209 79.9451 33.4989C79.3035 39.3184 77.1097 44.6889 73.6077 49.0124C72.8138 49.9925 72.8477 49.9247 73.1023 50.0233C73.2226 50.0699 73.7852 50.226 74.3527 50.3702C77.2368 51.1032 80.3414 51.2067 83.2564 50.6672C88.5582 49.6859 93.3333 46.541 96.4044 42.0076C96.69 41.5859 96.948 41.2127 96.9776 41.1781C97.0072 41.1436 97.7152 41.4591 98.5508 41.8792C100.206 42.7114 105.391 45.4027 105.447 45.4585C105.54 45.5514 103.887 48.0117 102.874 49.2897C101.914 50.4996 99.3993 53.0191 98.1977 53.9742C93.8555 57.4255 88.9826 59.5358 83.6153 60.2892C77.4525 61.1543 70.9259 59.9957 65.6156 57.094L64.8651 56.684L63.9342 57.178C59.3221 59.6255 54.0317 60.7922 48.6733 60.5437ZM65.8908 43.5406C68.461 40.3496 70.0647 36.4789 70.46 32.5122C70.5926 31.181 70.5138 28.4691 70.3072 27.2569C69.7387 23.9211 68.5224 21.062 66.5602 18.4493C66.1907 17.9574 65.6527 17.2996 65.3645 16.9878L64.8406 16.4208L64.3545 16.9495C63.7138 17.6463 62.646 19.068 62.1078 19.9408C59.3751 24.3729 58.4828 29.8178 59.6401 35.0001C60.3683 38.2612 62.0426 41.5464 64.299 44.1413L64.8186 44.7389L65.0461 44.523C65.1711 44.4043 65.5512 43.9622 65.8908 43.5406Z" fill="black"/>
</svg>
